M48
;Layer_Color=9474304
;FILE_FORMAT=2:5
INCH
;TYPE=PLATED
T01F00S00C0.01000
T02F00S00C0.03543
T03F00S00C0.03900
%
T01
X0009500Y0040500
X0012000Y0048500
X0030000
X0043358Y0074812
X0012000Y0071000
X0064181Y0058000
X0065500Y0009000
X0058500Y0009500
X0092500Y0034500
X0076000Y0139000
X0126000Y0146500
X0122642Y0149859
X0122500Y0171000
X0127500
X0062000Y0171500
X0055000
T02
X0015000Y0013000
Y0023000
X0025000
Y0013000
X0035000
Y0023000
X0045000
Y0013000
T03
X0016000Y0096000
X0029779
X0043559
X0057339
X0071118
X0084898
X0098677
X0112443Y0095823
X0126236Y0096000
X0140016
X0153795
X0153796Y0115609
X0140016Y0115685
X0126236
X0112457
X0098677
X0084898
X0071118
X0057339
X0043559
X0029779
X0016064Y0115552
X0167575Y0115685
X0167575Y0096000
M30
