G04*
G04 #@! TF.GenerationSoftware,Altium Limited,Altium Designer,25.0.2 (28)*
G04*
G04 Layer_Color=8421504*
%FSLAX25Y25*%
%MOIN*%
G70*
G04*
G04 #@! TF.SameCoordinates,07AE1BBE-3F5C-4E9B-B064-B64FE649ED2B*
G04*
G04*
G04 #@! TF.FilePolarity,Positive*
G04*
G01*
G75*
%ADD15R,0.06417X0.01654*%
%ADD16O,0.06417X0.01654*%
%ADD17R,0.14567X0.07480*%
%ADD18R,0.05906X0.05118*%
%ADD19R,0.04331X0.03937*%
%ADD20O,0.02362X0.08661*%
%ADD21O,0.08661X0.02362*%
%ADD22R,0.03937X0.04331*%
%ADD23R,0.01575X0.01968*%
%ADD24R,0.02756X0.03937*%
%ADD25R,0.05118X0.05906*%
%ADD26R,0.05512X0.16535*%
%ADD27R,0.02756X0.03937*%
%ADD28R,0.04724X0.13780*%
%ADD29R,0.08465X0.09646*%
D15*
X110468Y24323D02*
D03*
D16*
Y26882D02*
D03*
Y29441D02*
D03*
Y32000D02*
D03*
Y34559D02*
D03*
Y37118D02*
D03*
Y39677D02*
D03*
Y42236D02*
D03*
X83500Y24323D02*
D03*
Y26882D02*
D03*
Y29441D02*
D03*
Y32000D02*
D03*
Y34559D02*
D03*
Y37118D02*
D03*
Y39677D02*
D03*
Y42236D02*
D03*
D17*
X108768Y152760D02*
D03*
Y138587D02*
D03*
D18*
X82000Y163260D02*
D03*
Y170740D02*
D03*
X99000Y163260D02*
D03*
Y170740D02*
D03*
X107500Y163260D02*
D03*
Y170740D02*
D03*
X90500Y163260D02*
D03*
Y170740D02*
D03*
X116000Y163260D02*
D03*
Y170740D02*
D03*
D19*
X28346Y71000D02*
D03*
X21654D02*
D03*
X49654Y60000D02*
D03*
X56346D02*
D03*
X43347Y71000D02*
D03*
X36654D02*
D03*
X47346Y34000D02*
D03*
X40654D02*
D03*
X80347Y15000D02*
D03*
X73654D02*
D03*
X65346D02*
D03*
X58653D02*
D03*
D20*
X133500Y37551D02*
D03*
X138500D02*
D03*
X143500D02*
D03*
X148500D02*
D03*
X153500D02*
D03*
X158500D02*
D03*
X163500D02*
D03*
X168500D02*
D03*
X133500Y56449D02*
D03*
X138500D02*
D03*
X143500D02*
D03*
X148500D02*
D03*
X153500D02*
D03*
X158500D02*
D03*
X163500D02*
D03*
X168500D02*
D03*
D21*
X40449Y48500D02*
D03*
Y53500D02*
D03*
Y58500D02*
D03*
Y63500D02*
D03*
X21551Y48500D02*
D03*
Y53500D02*
D03*
Y58500D02*
D03*
Y63500D02*
D03*
D22*
X13000Y57653D02*
D03*
Y64346D02*
D03*
X6500Y64500D02*
D03*
Y57807D02*
D03*
X14500Y33654D02*
D03*
Y40346D02*
D03*
X21000Y33654D02*
D03*
Y40347D02*
D03*
X73500Y21654D02*
D03*
Y28346D02*
D03*
X96000Y147653D02*
D03*
Y154347D02*
D03*
X76000Y145653D02*
D03*
Y152347D02*
D03*
X74500Y171346D02*
D03*
Y164654D02*
D03*
D23*
X32559Y34260D02*
D03*
X30000D02*
D03*
X27441D02*
D03*
Y41740D02*
D03*
X30000D02*
D03*
X32559D02*
D03*
D24*
X62000Y40118D02*
D03*
X65740Y29882D02*
D03*
X58260D02*
D03*
D25*
X59260Y22500D02*
D03*
X66740D02*
D03*
D26*
X45361Y139268D02*
D03*
Y164994D02*
D03*
D27*
X82520Y143764D02*
D03*
X86260D02*
D03*
X90000D02*
D03*
X82520Y154000D02*
D03*
X86260D02*
D03*
X90000D02*
D03*
D28*
X133710Y166414D02*
D03*
Y145390D02*
D03*
D29*
X16000Y136535D02*
D03*
Y153465D02*
D03*
M02*
