G04*
G04 #@! TF.GenerationSoftware,Altium Limited,Altium Designer,25.0.2 (28)*
G04*
G04 Layer_Color=32896*
%FSLAX25Y25*%
%MOIN*%
G70*
G04*
G04 #@! TF.SameCoordinates,07AE1BBE-3F5C-4E9B-B064-B64FE649ED2B*
G04*
G04*
G04 #@! TF.FilePolarity,Positive*
G04*
G01*
G75*
%ADD12C,0.00787*%
G36*
X84326Y64282D02*
X84389Y64278D01*
X84448Y64267D01*
X84504Y64256D01*
X84556Y64241D01*
X84604Y64227D01*
X84648Y64208D01*
X84689Y64189D01*
X84726Y64171D01*
X84755Y64152D01*
X84781Y64138D01*
X84803Y64123D01*
X84822Y64112D01*
X84833Y64101D01*
X84841Y64097D01*
X84844Y64093D01*
X84881Y64056D01*
X84914Y64016D01*
X84948Y63971D01*
X84974Y63927D01*
X85018Y63838D01*
X85048Y63749D01*
X85059Y63709D01*
X85070Y63668D01*
X85077Y63635D01*
X85085Y63605D01*
X85088Y63579D01*
Y63561D01*
X85092Y63550D01*
Y63546D01*
X84770Y63512D01*
X84763Y63598D01*
X84748Y63672D01*
X84726Y63738D01*
X84700Y63790D01*
X84678Y63834D01*
X84656Y63864D01*
X84641Y63882D01*
X84633Y63890D01*
X84578Y63934D01*
X84519Y63968D01*
X84456Y63993D01*
X84400Y64008D01*
X84348Y64019D01*
X84304Y64023D01*
X84289Y64027D01*
X84267D01*
X84189Y64023D01*
X84119Y64008D01*
X84060Y63986D01*
X84008Y63964D01*
X83967Y63938D01*
X83941Y63919D01*
X83923Y63905D01*
X83916Y63897D01*
X83871Y63845D01*
X83838Y63794D01*
X83812Y63742D01*
X83797Y63690D01*
X83786Y63649D01*
X83782Y63612D01*
X83779Y63590D01*
Y63586D01*
Y63583D01*
X83786Y63516D01*
X83801Y63446D01*
X83827Y63383D01*
X83853Y63324D01*
X83882Y63276D01*
X83908Y63235D01*
X83916Y63220D01*
X83923Y63209D01*
X83930Y63205D01*
Y63202D01*
X83960Y63161D01*
X83997Y63120D01*
X84038Y63076D01*
X84082Y63031D01*
X84175Y62943D01*
X84267Y62854D01*
X84315Y62813D01*
X84356Y62776D01*
X84397Y62743D01*
X84430Y62713D01*
X84456Y62691D01*
X84478Y62673D01*
X84493Y62661D01*
X84496Y62658D01*
X84589Y62580D01*
X84674Y62506D01*
X84744Y62439D01*
X84800Y62384D01*
X84848Y62336D01*
X84881Y62303D01*
X84900Y62280D01*
X84907Y62277D01*
Y62273D01*
X84959Y62210D01*
X85000Y62151D01*
X85037Y62092D01*
X85066Y62040D01*
X85088Y61996D01*
X85103Y61962D01*
X85111Y61940D01*
X85114Y61936D01*
Y61933D01*
X85129Y61892D01*
X85136Y61855D01*
X85144Y61818D01*
X85148Y61785D01*
X85151Y61755D01*
Y61733D01*
Y61718D01*
Y61714D01*
X83453D01*
Y62018D01*
X84715D01*
X84670Y62081D01*
X84648Y62106D01*
X84630Y62132D01*
X84611Y62155D01*
X84596Y62169D01*
X84585Y62180D01*
X84582Y62184D01*
X84563Y62203D01*
X84541Y62221D01*
X84489Y62269D01*
X84430Y62325D01*
X84367Y62380D01*
X84308Y62428D01*
X84282Y62450D01*
X84260Y62473D01*
X84241Y62488D01*
X84226Y62499D01*
X84219Y62506D01*
X84215Y62510D01*
X84156Y62562D01*
X84097Y62610D01*
X84045Y62658D01*
X83997Y62699D01*
X83952Y62739D01*
X83916Y62776D01*
X83878Y62809D01*
X83849Y62839D01*
X83819Y62869D01*
X83797Y62891D01*
X83779Y62909D01*
X83760Y62928D01*
X83742Y62950D01*
X83734Y62957D01*
X83682Y63020D01*
X83638Y63076D01*
X83601Y63131D01*
X83571Y63176D01*
X83549Y63216D01*
X83534Y63246D01*
X83527Y63265D01*
X83523Y63272D01*
X83501Y63327D01*
X83486Y63383D01*
X83472Y63435D01*
X83464Y63479D01*
X83460Y63520D01*
X83457Y63550D01*
Y63568D01*
Y63575D01*
X83460Y63631D01*
X83468Y63683D01*
X83475Y63735D01*
X83490Y63779D01*
X83527Y63868D01*
X83564Y63938D01*
X83586Y63971D01*
X83605Y63997D01*
X83623Y64023D01*
X83642Y64042D01*
X83657Y64056D01*
X83664Y64071D01*
X83671Y64075D01*
X83675Y64078D01*
X83716Y64116D01*
X83760Y64149D01*
X83808Y64175D01*
X83856Y64197D01*
X83952Y64234D01*
X84049Y64260D01*
X84089Y64267D01*
X84130Y64275D01*
X84167Y64278D01*
X84197Y64282D01*
X84223Y64286D01*
X84260D01*
X84326Y64282D01*
D02*
G37*
G36*
X86154Y64223D02*
X86195Y64164D01*
X86243Y64104D01*
X86287Y64053D01*
X86332Y64008D01*
X86365Y63971D01*
X86380Y63960D01*
X86391Y63949D01*
X86395Y63945D01*
X86398Y63942D01*
X86476Y63879D01*
X86554Y63820D01*
X86628Y63768D01*
X86702Y63727D01*
X86765Y63690D01*
X86790Y63675D01*
X86813Y63664D01*
X86831Y63653D01*
X86846Y63649D01*
X86853Y63642D01*
X86857D01*
Y63339D01*
X86801Y63361D01*
X86746Y63387D01*
X86690Y63412D01*
X86639Y63438D01*
X86594Y63461D01*
X86557Y63479D01*
X86535Y63494D01*
X86531Y63498D01*
X86528D01*
X86461Y63538D01*
X86402Y63579D01*
X86350Y63616D01*
X86309Y63649D01*
X86273Y63675D01*
X86250Y63697D01*
X86232Y63712D01*
X86228Y63716D01*
Y61714D01*
X85913D01*
Y64286D01*
X86117D01*
X86154Y64223D01*
D02*
G37*
G36*
X89547Y61714D02*
X89207D01*
Y62850D01*
X88770D01*
X88729Y62846D01*
X88700D01*
X88674Y62843D01*
X88655Y62839D01*
X88640D01*
X88633Y62835D01*
X88629D01*
X88570Y62817D01*
X88544Y62806D01*
X88522Y62795D01*
X88500Y62784D01*
X88485Y62776D01*
X88478Y62773D01*
X88474Y62769D01*
X88444Y62747D01*
X88415Y62721D01*
X88359Y62665D01*
X88333Y62639D01*
X88315Y62617D01*
X88304Y62602D01*
X88300Y62599D01*
X88263Y62547D01*
X88222Y62491D01*
X88182Y62432D01*
X88141Y62376D01*
X88108Y62325D01*
X88082Y62284D01*
X88071Y62269D01*
X88063Y62258D01*
X88056Y62251D01*
Y62247D01*
X87719Y61714D01*
X87297D01*
X87738Y62410D01*
X87789Y62484D01*
X87837Y62550D01*
X87886Y62606D01*
X87926Y62658D01*
X87963Y62695D01*
X87993Y62724D01*
X88011Y62743D01*
X88019Y62750D01*
X88048Y62773D01*
X88082Y62798D01*
X88148Y62839D01*
X88178Y62854D01*
X88200Y62869D01*
X88215Y62876D01*
X88222Y62880D01*
X88156Y62891D01*
X88093Y62902D01*
X88037Y62920D01*
X87982Y62935D01*
X87934Y62954D01*
X87889Y62976D01*
X87849Y62994D01*
X87812Y63013D01*
X87782Y63035D01*
X87752Y63054D01*
X87730Y63068D01*
X87712Y63083D01*
X87697Y63094D01*
X87686Y63105D01*
X87682Y63109D01*
X87678Y63113D01*
X87649Y63150D01*
X87619Y63187D01*
X87575Y63265D01*
X87545Y63342D01*
X87523Y63416D01*
X87508Y63479D01*
X87505Y63505D01*
Y63531D01*
X87501Y63550D01*
Y63564D01*
Y63572D01*
Y63575D01*
X87505Y63653D01*
X87516Y63723D01*
X87534Y63790D01*
X87553Y63845D01*
X87575Y63894D01*
X87590Y63931D01*
X87604Y63953D01*
X87608Y63956D01*
Y63960D01*
X87652Y64019D01*
X87697Y64071D01*
X87745Y64116D01*
X87789Y64149D01*
X87830Y64175D01*
X87863Y64189D01*
X87886Y64201D01*
X87889Y64204D01*
X87893D01*
X87926Y64215D01*
X87967Y64227D01*
X88048Y64245D01*
X88137Y64256D01*
X88219Y64267D01*
X88296Y64271D01*
X88330D01*
X88359Y64275D01*
X89547D01*
Y61714D01*
D02*
G37*
G36*
X84907Y90409D02*
X84948Y90349D01*
X84996Y90290D01*
X85040Y90238D01*
X85085Y90194D01*
X85118Y90157D01*
X85133Y90146D01*
X85144Y90135D01*
X85148Y90131D01*
X85151Y90127D01*
X85229Y90065D01*
X85307Y90005D01*
X85381Y89954D01*
X85455Y89913D01*
X85518Y89876D01*
X85544Y89861D01*
X85566Y89850D01*
X85584Y89839D01*
X85599Y89835D01*
X85606Y89828D01*
X85610D01*
Y89524D01*
X85555Y89547D01*
X85499Y89572D01*
X85444Y89598D01*
X85392Y89624D01*
X85347Y89646D01*
X85310Y89665D01*
X85288Y89680D01*
X85285Y89683D01*
X85281D01*
X85214Y89724D01*
X85155Y89765D01*
X85103Y89802D01*
X85062Y89835D01*
X85026Y89861D01*
X85003Y89883D01*
X84985Y89898D01*
X84981Y89902D01*
Y87900D01*
X84667D01*
Y90472D01*
X84870D01*
X84907Y90409D01*
D02*
G37*
G36*
X82916D02*
X82957Y90349D01*
X83005Y90290D01*
X83050Y90238D01*
X83094Y90194D01*
X83127Y90157D01*
X83142Y90146D01*
X83153Y90135D01*
X83157Y90131D01*
X83161Y90127D01*
X83238Y90065D01*
X83316Y90005D01*
X83390Y89954D01*
X83464Y89913D01*
X83527Y89876D01*
X83553Y89861D01*
X83575Y89850D01*
X83594Y89839D01*
X83608Y89835D01*
X83616Y89828D01*
X83619D01*
Y89524D01*
X83564Y89547D01*
X83508Y89572D01*
X83453Y89598D01*
X83401Y89624D01*
X83357Y89646D01*
X83320Y89665D01*
X83298Y89680D01*
X83294Y89683D01*
X83290D01*
X83224Y89724D01*
X83164Y89765D01*
X83113Y89802D01*
X83072Y89835D01*
X83035Y89861D01*
X83013Y89883D01*
X82994Y89898D01*
X82990Y89902D01*
Y87900D01*
X82676D01*
Y90472D01*
X82880D01*
X82916Y90409D01*
D02*
G37*
G36*
X88300Y87900D02*
X87960D01*
Y89036D01*
X87523D01*
X87482Y89032D01*
X87453D01*
X87427Y89029D01*
X87408Y89025D01*
X87393D01*
X87386Y89021D01*
X87382D01*
X87323Y89003D01*
X87297Y88991D01*
X87275Y88980D01*
X87253Y88969D01*
X87238Y88962D01*
X87231Y88958D01*
X87227Y88955D01*
X87197Y88932D01*
X87168Y88906D01*
X87112Y88851D01*
X87086Y88825D01*
X87068Y88803D01*
X87057Y88788D01*
X87053Y88784D01*
X87016Y88732D01*
X86975Y88677D01*
X86935Y88618D01*
X86894Y88562D01*
X86861Y88511D01*
X86835Y88470D01*
X86824Y88455D01*
X86816Y88444D01*
X86809Y88437D01*
Y88433D01*
X86472Y87900D01*
X86050D01*
X86491Y88596D01*
X86542Y88670D01*
X86591Y88736D01*
X86639Y88792D01*
X86679Y88844D01*
X86716Y88880D01*
X86746Y88910D01*
X86765Y88929D01*
X86772Y88936D01*
X86801Y88958D01*
X86835Y88984D01*
X86901Y89025D01*
X86931Y89040D01*
X86953Y89054D01*
X86968Y89062D01*
X86975Y89065D01*
X86909Y89077D01*
X86846Y89088D01*
X86790Y89106D01*
X86735Y89121D01*
X86687Y89139D01*
X86642Y89162D01*
X86602Y89180D01*
X86565Y89199D01*
X86535Y89221D01*
X86506Y89239D01*
X86483Y89254D01*
X86465Y89269D01*
X86450Y89280D01*
X86439Y89291D01*
X86435Y89295D01*
X86431Y89299D01*
X86402Y89336D01*
X86372Y89373D01*
X86328Y89450D01*
X86298Y89528D01*
X86276Y89602D01*
X86261Y89665D01*
X86258Y89691D01*
Y89717D01*
X86254Y89735D01*
Y89750D01*
Y89757D01*
Y89761D01*
X86258Y89839D01*
X86269Y89909D01*
X86287Y89976D01*
X86306Y90031D01*
X86328Y90079D01*
X86343Y90116D01*
X86357Y90139D01*
X86361Y90142D01*
Y90146D01*
X86406Y90205D01*
X86450Y90257D01*
X86498Y90301D01*
X86542Y90335D01*
X86583Y90360D01*
X86616Y90375D01*
X86639Y90386D01*
X86642Y90390D01*
X86646D01*
X86679Y90401D01*
X86720Y90412D01*
X86801Y90431D01*
X86890Y90442D01*
X86972Y90453D01*
X87049Y90457D01*
X87083D01*
X87112Y90460D01*
X88300D01*
Y87900D01*
D02*
G37*
G36*
X70663Y63745D02*
X70704Y63686D01*
X70752Y63627D01*
X70797Y63575D01*
X70841Y63530D01*
X70874Y63493D01*
X70889Y63482D01*
X70900Y63471D01*
X70904Y63468D01*
X70907Y63464D01*
X70985Y63401D01*
X71063Y63342D01*
X71137Y63290D01*
X71211Y63249D01*
X71274Y63212D01*
X71300Y63197D01*
X71322Y63186D01*
X71340Y63175D01*
X71355Y63172D01*
X71363Y63164D01*
X71366D01*
Y62861D01*
X71311Y62883D01*
X71255Y62909D01*
X71200Y62935D01*
X71148Y62961D01*
X71104Y62983D01*
X71067Y63001D01*
X71044Y63016D01*
X71041Y63020D01*
X71037D01*
X70970Y63061D01*
X70911Y63101D01*
X70859Y63138D01*
X70819Y63172D01*
X70782Y63197D01*
X70759Y63220D01*
X70741Y63235D01*
X70737Y63238D01*
Y61237D01*
X70423D01*
Y63808D01*
X70626D01*
X70663Y63745D01*
D02*
G37*
G36*
X74056Y61237D02*
X73716D01*
Y62372D01*
X73279D01*
X73238Y62369D01*
X73209D01*
X73183Y62365D01*
X73164Y62361D01*
X73150D01*
X73142Y62358D01*
X73139D01*
X73079Y62339D01*
X73053Y62328D01*
X73031Y62317D01*
X73009Y62306D01*
X72994Y62298D01*
X72987Y62295D01*
X72983Y62291D01*
X72954Y62269D01*
X72924Y62243D01*
X72869Y62187D01*
X72843Y62161D01*
X72824Y62139D01*
X72813Y62125D01*
X72809Y62121D01*
X72772Y62069D01*
X72732Y62014D01*
X72691Y61954D01*
X72650Y61899D01*
X72617Y61847D01*
X72591Y61806D01*
X72580Y61791D01*
X72572Y61780D01*
X72565Y61773D01*
Y61769D01*
X72228Y61237D01*
X71807D01*
X72247Y61932D01*
X72299Y62006D01*
X72347Y62073D01*
X72395Y62128D01*
X72436Y62180D01*
X72473Y62217D01*
X72502Y62247D01*
X72521Y62265D01*
X72528Y62273D01*
X72558Y62295D01*
X72591Y62321D01*
X72658Y62361D01*
X72687Y62376D01*
X72709Y62391D01*
X72724Y62398D01*
X72732Y62402D01*
X72665Y62413D01*
X72602Y62424D01*
X72547Y62443D01*
X72491Y62457D01*
X72443Y62476D01*
X72399Y62498D01*
X72358Y62517D01*
X72321Y62535D01*
X72291Y62557D01*
X72262Y62576D01*
X72240Y62591D01*
X72221Y62605D01*
X72206Y62616D01*
X72195Y62628D01*
X72191Y62631D01*
X72188Y62635D01*
X72158Y62672D01*
X72128Y62709D01*
X72084Y62787D01*
X72054Y62864D01*
X72032Y62938D01*
X72018Y63001D01*
X72014Y63027D01*
Y63053D01*
X72010Y63072D01*
Y63086D01*
Y63094D01*
Y63098D01*
X72014Y63175D01*
X72025Y63246D01*
X72043Y63312D01*
X72062Y63368D01*
X72084Y63416D01*
X72099Y63453D01*
X72114Y63475D01*
X72117Y63479D01*
Y63482D01*
X72162Y63542D01*
X72206Y63593D01*
X72254Y63638D01*
X72299Y63671D01*
X72339Y63697D01*
X72373Y63712D01*
X72395Y63723D01*
X72399Y63727D01*
X72402D01*
X72436Y63738D01*
X72476Y63749D01*
X72558Y63767D01*
X72646Y63778D01*
X72728Y63789D01*
X72806Y63793D01*
X72839D01*
X72869Y63797D01*
X74056D01*
Y61237D01*
D02*
G37*
G36*
X68880Y63801D02*
X68972Y63786D01*
X69050Y63760D01*
X69117Y63734D01*
X69172Y63704D01*
X69194Y63693D01*
X69213Y63678D01*
X69228Y63671D01*
X69239Y63664D01*
X69243Y63656D01*
X69246D01*
X69313Y63597D01*
X69368Y63527D01*
X69416Y63456D01*
X69453Y63390D01*
X69483Y63327D01*
X69498Y63301D01*
X69505Y63275D01*
X69513Y63257D01*
X69520Y63242D01*
X69524Y63235D01*
Y63231D01*
X69538Y63175D01*
X69553Y63120D01*
X69576Y62998D01*
X69594Y62875D01*
X69605Y62761D01*
X69609Y62705D01*
X69612Y62657D01*
Y62613D01*
X69616Y62572D01*
Y62543D01*
Y62517D01*
Y62502D01*
Y62498D01*
X69612Y62369D01*
X69605Y62247D01*
X69594Y62136D01*
X69576Y62032D01*
X69557Y61936D01*
X69535Y61851D01*
X69513Y61773D01*
X69490Y61706D01*
X69468Y61647D01*
X69442Y61595D01*
X69424Y61551D01*
X69405Y61518D01*
X69387Y61488D01*
X69376Y61470D01*
X69368Y61458D01*
X69365Y61455D01*
X69324Y61410D01*
X69279Y61370D01*
X69231Y61333D01*
X69183Y61303D01*
X69135Y61277D01*
X69087Y61255D01*
X69039Y61240D01*
X68995Y61225D01*
X68950Y61214D01*
X68910Y61207D01*
X68872Y61199D01*
X68843Y61196D01*
X68817Y61192D01*
X68780D01*
X68680Y61199D01*
X68588Y61214D01*
X68510Y61240D01*
X68443Y61266D01*
X68388Y61292D01*
X68369Y61307D01*
X68351Y61318D01*
X68336Y61325D01*
X68325Y61333D01*
X68321Y61340D01*
X68318D01*
X68251Y61403D01*
X68195Y61470D01*
X68147Y61544D01*
X68110Y61610D01*
X68081Y61673D01*
X68066Y61699D01*
X68059Y61725D01*
X68051Y61743D01*
X68044Y61758D01*
X68040Y61765D01*
Y61769D01*
X68022Y61825D01*
X68007Y61880D01*
X67984Y61999D01*
X67966Y62121D01*
X67955Y62239D01*
X67951Y62291D01*
X67948Y62339D01*
Y62384D01*
X67944Y62424D01*
Y62454D01*
Y62480D01*
Y62494D01*
Y62498D01*
Y62568D01*
X67948Y62635D01*
Y62694D01*
X67951Y62753D01*
X67959Y62805D01*
X67962Y62857D01*
X67966Y62901D01*
X67973Y62942D01*
X67977Y62979D01*
X67984Y63012D01*
X67988Y63038D01*
X67992Y63061D01*
X67996Y63079D01*
X67999Y63090D01*
X68003Y63098D01*
Y63101D01*
X68025Y63183D01*
X68051Y63257D01*
X68081Y63320D01*
X68103Y63375D01*
X68129Y63423D01*
X68144Y63456D01*
X68158Y63475D01*
X68162Y63482D01*
X68203Y63538D01*
X68243Y63586D01*
X68288Y63627D01*
X68329Y63664D01*
X68366Y63690D01*
X68395Y63708D01*
X68414Y63719D01*
X68417Y63723D01*
X68421D01*
X68480Y63752D01*
X68543Y63771D01*
X68602Y63786D01*
X68658Y63797D01*
X68706Y63804D01*
X68747Y63808D01*
X68780D01*
X68880Y63801D01*
D02*
G37*
G36*
X69611Y90568D02*
X69670Y90560D01*
X69729Y90549D01*
X69781Y90535D01*
X69881Y90494D01*
X69925Y90475D01*
X69962Y90453D01*
X69999Y90427D01*
X70029Y90409D01*
X70058Y90386D01*
X70081Y90368D01*
X70099Y90353D01*
X70110Y90342D01*
X70117Y90335D01*
X70121Y90331D01*
X70162Y90287D01*
X70195Y90235D01*
X70228Y90187D01*
X70254Y90135D01*
X70277Y90079D01*
X70295Y90028D01*
X70321Y89931D01*
X70332Y89883D01*
X70340Y89843D01*
X70343Y89802D01*
X70347Y89769D01*
X70351Y89743D01*
Y89724D01*
Y89709D01*
Y89706D01*
X70347Y89635D01*
X70340Y89573D01*
X70332Y89510D01*
X70317Y89450D01*
X70299Y89399D01*
X70280Y89347D01*
X70262Y89302D01*
X70240Y89262D01*
X70221Y89225D01*
X70203Y89191D01*
X70184Y89166D01*
X70166Y89140D01*
X70151Y89121D01*
X70143Y89110D01*
X70136Y89103D01*
X70132Y89099D01*
X70092Y89058D01*
X70047Y89025D01*
X70003Y88992D01*
X69955Y88966D01*
X69910Y88943D01*
X69866Y88925D01*
X69781Y88899D01*
X69744Y88888D01*
X69707Y88881D01*
X69677Y88877D01*
X69648Y88873D01*
X69625Y88870D01*
X69596D01*
X69525Y88873D01*
X69459Y88884D01*
X69400Y88899D01*
X69344Y88918D01*
X69304Y88932D01*
X69270Y88947D01*
X69248Y88958D01*
X69241Y88962D01*
X69181Y88999D01*
X69130Y89040D01*
X69085Y89080D01*
X69048Y89117D01*
X69022Y89154D01*
X69000Y89180D01*
X68985Y89199D01*
X68982Y89206D01*
Y89177D01*
Y89158D01*
Y89147D01*
Y89143D01*
X68985Y89069D01*
X68989Y88999D01*
X68996Y88936D01*
X69004Y88877D01*
X69015Y88829D01*
X69022Y88792D01*
X69026Y88777D01*
Y88766D01*
X69030Y88762D01*
Y88758D01*
X69048Y88692D01*
X69067Y88633D01*
X69085Y88581D01*
X69104Y88537D01*
X69118Y88503D01*
X69133Y88477D01*
X69141Y88459D01*
X69144Y88455D01*
X69174Y88414D01*
X69204Y88381D01*
X69233Y88352D01*
X69263Y88326D01*
X69285Y88303D01*
X69307Y88289D01*
X69322Y88281D01*
X69326Y88278D01*
X69366Y88255D01*
X69411Y88240D01*
X69451Y88229D01*
X69492Y88222D01*
X69525Y88218D01*
X69551Y88215D01*
X69577D01*
X69636Y88218D01*
X69692Y88229D01*
X69740Y88244D01*
X69781Y88263D01*
X69810Y88278D01*
X69836Y88292D01*
X69851Y88303D01*
X69855Y88307D01*
X69892Y88348D01*
X69921Y88396D01*
X69947Y88448D01*
X69966Y88499D01*
X69981Y88544D01*
X69992Y88585D01*
X69995Y88599D01*
Y88607D01*
X69999Y88614D01*
Y88618D01*
X70302Y88592D01*
X70280Y88485D01*
X70251Y88392D01*
X70214Y88311D01*
X70177Y88244D01*
X70140Y88192D01*
X70121Y88170D01*
X70106Y88152D01*
X70095Y88141D01*
X70084Y88130D01*
X70081Y88126D01*
X70077Y88122D01*
X70040Y88092D01*
X69999Y88067D01*
X69918Y88026D01*
X69836Y87996D01*
X69759Y87978D01*
X69688Y87963D01*
X69659Y87959D01*
X69633D01*
X69614Y87956D01*
X69585D01*
X69481Y87963D01*
X69389Y87978D01*
X69304Y88004D01*
X69233Y88033D01*
X69204Y88044D01*
X69174Y88059D01*
X69152Y88074D01*
X69130Y88085D01*
X69115Y88092D01*
X69104Y88100D01*
X69096Y88107D01*
X69093D01*
X69019Y88170D01*
X68952Y88240D01*
X68900Y88314D01*
X68856Y88385D01*
X68819Y88448D01*
X68804Y88477D01*
X68793Y88499D01*
X68786Y88522D01*
X68778Y88537D01*
X68774Y88544D01*
Y88548D01*
X68756Y88603D01*
X68737Y88666D01*
X68712Y88792D01*
X68693Y88925D01*
X68682Y89051D01*
X68674Y89106D01*
X68671Y89162D01*
Y89210D01*
X68667Y89251D01*
Y89284D01*
Y89310D01*
Y89328D01*
Y89332D01*
Y89417D01*
X68671Y89499D01*
X68678Y89573D01*
X68686Y89643D01*
X68693Y89706D01*
X68700Y89765D01*
X68712Y89820D01*
X68723Y89868D01*
X68734Y89909D01*
X68741Y89946D01*
X68752Y89979D01*
X68760Y90005D01*
X68767Y90024D01*
X68774Y90039D01*
X68778Y90046D01*
Y90050D01*
X68822Y90139D01*
X68871Y90216D01*
X68926Y90283D01*
X68974Y90338D01*
X69022Y90379D01*
X69059Y90409D01*
X69074Y90420D01*
X69085Y90427D01*
X69089Y90435D01*
X69093D01*
X69170Y90479D01*
X69248Y90512D01*
X69326Y90538D01*
X69396Y90553D01*
X69459Y90564D01*
X69485Y90568D01*
X69503D01*
X69522Y90571D01*
X69548D01*
X69611Y90568D01*
D02*
G37*
G36*
X72800Y88000D02*
X72460D01*
Y89136D01*
X72023D01*
X71982Y89132D01*
X71953D01*
X71927Y89129D01*
X71908Y89125D01*
X71894D01*
X71886Y89121D01*
X71882D01*
X71823Y89103D01*
X71797Y89091D01*
X71775Y89080D01*
X71753Y89069D01*
X71738Y89062D01*
X71731Y89058D01*
X71727Y89055D01*
X71697Y89032D01*
X71668Y89006D01*
X71612Y88951D01*
X71586Y88925D01*
X71568Y88903D01*
X71557Y88888D01*
X71553Y88884D01*
X71516Y88832D01*
X71475Y88777D01*
X71435Y88718D01*
X71394Y88662D01*
X71361Y88611D01*
X71335Y88570D01*
X71324Y88555D01*
X71316Y88544D01*
X71309Y88537D01*
Y88533D01*
X70972Y88000D01*
X70550D01*
X70991Y88696D01*
X71043Y88770D01*
X71091Y88836D01*
X71139Y88892D01*
X71179Y88943D01*
X71216Y88981D01*
X71246Y89010D01*
X71264Y89029D01*
X71272Y89036D01*
X71302Y89058D01*
X71335Y89084D01*
X71401Y89125D01*
X71431Y89140D01*
X71453Y89154D01*
X71468Y89162D01*
X71475Y89166D01*
X71409Y89177D01*
X71346Y89188D01*
X71290Y89206D01*
X71235Y89221D01*
X71187Y89240D01*
X71142Y89262D01*
X71102Y89280D01*
X71065Y89299D01*
X71035Y89321D01*
X71005Y89339D01*
X70983Y89354D01*
X70965Y89369D01*
X70950Y89380D01*
X70939Y89391D01*
X70935Y89395D01*
X70932Y89399D01*
X70902Y89436D01*
X70872Y89473D01*
X70828Y89550D01*
X70798Y89628D01*
X70776Y89702D01*
X70761Y89765D01*
X70758Y89791D01*
Y89817D01*
X70754Y89835D01*
Y89850D01*
Y89857D01*
Y89861D01*
X70758Y89939D01*
X70769Y90009D01*
X70787Y90076D01*
X70806Y90131D01*
X70828Y90179D01*
X70843Y90216D01*
X70858Y90238D01*
X70861Y90242D01*
Y90246D01*
X70906Y90305D01*
X70950Y90357D01*
X70998Y90401D01*
X71043Y90435D01*
X71083Y90460D01*
X71117Y90475D01*
X71139Y90486D01*
X71142Y90490D01*
X71146D01*
X71179Y90501D01*
X71220Y90512D01*
X71302Y90531D01*
X71390Y90542D01*
X71472Y90553D01*
X71549Y90557D01*
X71583D01*
X71612Y90560D01*
X72800D01*
Y88000D01*
D02*
G37*
G36*
X97418Y83301D02*
X97518Y83282D01*
X97603Y83252D01*
X97677Y83223D01*
X97710Y83204D01*
X97736Y83189D01*
X97762Y83175D01*
X97780Y83160D01*
X97795Y83149D01*
X97806Y83141D01*
X97814Y83138D01*
X97817Y83134D01*
X97888Y83064D01*
X97943Y82986D01*
X97988Y82905D01*
X98024Y82823D01*
X98047Y82753D01*
X98058Y82723D01*
X98065Y82697D01*
X98069Y82675D01*
X98073Y82661D01*
X98076Y82649D01*
Y82646D01*
X97762Y82590D01*
X97747Y82672D01*
X97725Y82742D01*
X97699Y82801D01*
X97673Y82849D01*
X97647Y82886D01*
X97625Y82912D01*
X97610Y82931D01*
X97606Y82934D01*
X97558Y82971D01*
X97507Y83001D01*
X97458Y83019D01*
X97410Y83034D01*
X97366Y83042D01*
X97333Y83049D01*
X97303D01*
X97237Y83045D01*
X97177Y83030D01*
X97126Y83012D01*
X97081Y82993D01*
X97048Y82971D01*
X97022Y82953D01*
X97003Y82938D01*
X97000Y82934D01*
X96959Y82890D01*
X96929Y82842D01*
X96911Y82794D01*
X96896Y82749D01*
X96889Y82709D01*
X96881Y82679D01*
Y82657D01*
Y82653D01*
Y82649D01*
Y82609D01*
X96889Y82572D01*
X96907Y82509D01*
X96933Y82453D01*
X96963Y82405D01*
X96992Y82372D01*
X97018Y82346D01*
X97037Y82331D01*
X97040Y82327D01*
X97044D01*
X97107Y82294D01*
X97166Y82268D01*
X97229Y82250D01*
X97285Y82239D01*
X97333Y82231D01*
X97373Y82224D01*
X97421D01*
X97436Y82227D01*
X97455D01*
X97492Y81950D01*
X97444Y81961D01*
X97399Y81969D01*
X97362Y81976D01*
X97329Y81980D01*
X97303Y81983D01*
X97270D01*
X97192Y81976D01*
X97122Y81961D01*
X97059Y81939D01*
X97007Y81913D01*
X96966Y81887D01*
X96937Y81865D01*
X96918Y81850D01*
X96911Y81843D01*
X96863Y81787D01*
X96826Y81728D01*
X96800Y81669D01*
X96785Y81610D01*
X96774Y81561D01*
X96770Y81521D01*
X96767Y81506D01*
Y81495D01*
Y81488D01*
Y81484D01*
X96774Y81402D01*
X96792Y81328D01*
X96815Y81265D01*
X96844Y81210D01*
X96874Y81166D01*
X96896Y81132D01*
X96914Y81110D01*
X96922Y81103D01*
X96981Y81051D01*
X97044Y81014D01*
X97107Y80988D01*
X97166Y80970D01*
X97218Y80958D01*
X97259Y80955D01*
X97273Y80951D01*
X97296D01*
X97362Y80955D01*
X97425Y80970D01*
X97481Y80988D01*
X97525Y81010D01*
X97562Y81029D01*
X97592Y81047D01*
X97606Y81062D01*
X97614Y81066D01*
X97658Y81118D01*
X97695Y81177D01*
X97729Y81240D01*
X97754Y81306D01*
X97773Y81362D01*
X97780Y81388D01*
X97784Y81410D01*
X97788Y81428D01*
X97791Y81443D01*
X97795Y81450D01*
Y81454D01*
X98110Y81414D01*
X98102Y81354D01*
X98091Y81299D01*
X98058Y81195D01*
X98017Y81106D01*
X97995Y81069D01*
X97973Y81032D01*
X97951Y80999D01*
X97928Y80973D01*
X97910Y80947D01*
X97891Y80929D01*
X97880Y80914D01*
X97869Y80903D01*
X97862Y80896D01*
X97858Y80892D01*
X97814Y80859D01*
X97769Y80825D01*
X97725Y80799D01*
X97677Y80777D01*
X97584Y80740D01*
X97496Y80718D01*
X97455Y80711D01*
X97418Y80703D01*
X97385Y80699D01*
X97355Y80696D01*
X97333Y80692D01*
X97299D01*
X97229Y80696D01*
X97166Y80703D01*
X97103Y80714D01*
X97044Y80729D01*
X96988Y80748D01*
X96940Y80766D01*
X96892Y80788D01*
X96852Y80810D01*
X96811Y80829D01*
X96778Y80851D01*
X96748Y80870D01*
X96726Y80888D01*
X96707Y80903D01*
X96693Y80914D01*
X96685Y80922D01*
X96681Y80925D01*
X96637Y80970D01*
X96600Y81018D01*
X96567Y81066D01*
X96537Y81114D01*
X96515Y81158D01*
X96493Y81206D01*
X96463Y81295D01*
X96456Y81336D01*
X96448Y81373D01*
X96441Y81406D01*
X96437Y81436D01*
X96434Y81458D01*
Y81476D01*
Y81488D01*
Y81491D01*
X96437Y81580D01*
X96452Y81661D01*
X96474Y81732D01*
X96496Y81791D01*
X96519Y81839D01*
X96541Y81876D01*
X96556Y81898D01*
X96559Y81906D01*
X96611Y81961D01*
X96667Y82009D01*
X96726Y82046D01*
X96785Y82076D01*
X96837Y82098D01*
X96877Y82113D01*
X96892Y82117D01*
X96903Y82120D01*
X96911Y82124D01*
X96914D01*
X96852Y82157D01*
X96800Y82191D01*
X96755Y82227D01*
X96718Y82261D01*
X96689Y82290D01*
X96667Y82316D01*
X96656Y82331D01*
X96652Y82339D01*
X96622Y82390D01*
X96600Y82442D01*
X96582Y82494D01*
X96570Y82542D01*
X96563Y82583D01*
X96559Y82612D01*
Y82635D01*
Y82642D01*
X96563Y82705D01*
X96574Y82768D01*
X96589Y82823D01*
X96607Y82871D01*
X96626Y82912D01*
X96641Y82945D01*
X96652Y82964D01*
X96656Y82971D01*
X96693Y83027D01*
X96737Y83075D01*
X96781Y83116D01*
X96826Y83153D01*
X96863Y83178D01*
X96896Y83201D01*
X96918Y83212D01*
X96922Y83215D01*
X96926D01*
X96992Y83245D01*
X97059Y83267D01*
X97126Y83286D01*
X97185Y83297D01*
X97233Y83304D01*
X97273Y83308D01*
X97366D01*
X97418Y83301D01*
D02*
G37*
G36*
X100566Y80737D02*
X99645D01*
X99560Y80740D01*
X99482Y80744D01*
X99412Y80751D01*
X99353Y80759D01*
X99301Y80766D01*
X99264Y80770D01*
X99253Y80774D01*
X99242Y80777D01*
X99234D01*
X99168Y80796D01*
X99109Y80818D01*
X99057Y80836D01*
X99013Y80859D01*
X98975Y80877D01*
X98949Y80892D01*
X98935Y80903D01*
X98927Y80907D01*
X98879Y80940D01*
X98839Y80981D01*
X98798Y81018D01*
X98764Y81055D01*
X98735Y81088D01*
X98713Y81114D01*
X98698Y81132D01*
X98694Y81140D01*
X98657Y81199D01*
X98620Y81262D01*
X98591Y81321D01*
X98568Y81380D01*
X98546Y81432D01*
X98531Y81473D01*
X98528Y81488D01*
X98524Y81499D01*
X98520Y81506D01*
Y81510D01*
X98498Y81599D01*
X98480Y81687D01*
X98469Y81773D01*
X98457Y81854D01*
X98454Y81924D01*
Y81954D01*
X98450Y81980D01*
Y81998D01*
Y82017D01*
Y82024D01*
Y82028D01*
X98454Y82153D01*
X98465Y82268D01*
X98483Y82372D01*
X98491Y82420D01*
X98502Y82461D01*
X98513Y82501D01*
X98520Y82535D01*
X98528Y82564D01*
X98539Y82590D01*
X98543Y82612D01*
X98550Y82627D01*
X98554Y82635D01*
Y82638D01*
X98594Y82735D01*
X98642Y82820D01*
X98694Y82894D01*
X98742Y82956D01*
X98787Y83008D01*
X98824Y83045D01*
X98839Y83056D01*
X98850Y83067D01*
X98853Y83071D01*
X98857Y83075D01*
X98916Y83123D01*
X98979Y83160D01*
X99042Y83193D01*
X99101Y83219D01*
X99153Y83238D01*
X99194Y83249D01*
X99209Y83256D01*
X99220D01*
X99227Y83260D01*
X99231D01*
X99294Y83271D01*
X99368Y83282D01*
X99442Y83289D01*
X99516Y83293D01*
X99582Y83297D01*
X100566D01*
Y80737D01*
D02*
G37*
G36*
X57320Y83282D02*
X57383Y83278D01*
X57442Y83267D01*
X57497Y83256D01*
X57549Y83241D01*
X57597Y83227D01*
X57642Y83208D01*
X57682Y83189D01*
X57719Y83171D01*
X57749Y83153D01*
X57775Y83138D01*
X57797Y83123D01*
X57815Y83112D01*
X57827Y83101D01*
X57834Y83097D01*
X57838Y83093D01*
X57875Y83056D01*
X57908Y83016D01*
X57941Y82971D01*
X57967Y82927D01*
X58012Y82838D01*
X58041Y82749D01*
X58052Y82709D01*
X58063Y82668D01*
X58071Y82635D01*
X58078Y82605D01*
X58082Y82579D01*
Y82561D01*
X58086Y82550D01*
Y82546D01*
X57764Y82512D01*
X57756Y82598D01*
X57741Y82672D01*
X57719Y82738D01*
X57693Y82790D01*
X57671Y82834D01*
X57649Y82864D01*
X57634Y82882D01*
X57627Y82890D01*
X57571Y82934D01*
X57512Y82968D01*
X57449Y82993D01*
X57394Y83008D01*
X57342Y83019D01*
X57297Y83023D01*
X57283Y83027D01*
X57261D01*
X57183Y83023D01*
X57112Y83008D01*
X57053Y82986D01*
X57002Y82964D01*
X56961Y82938D01*
X56935Y82919D01*
X56916Y82905D01*
X56909Y82897D01*
X56865Y82845D01*
X56831Y82794D01*
X56805Y82742D01*
X56791Y82690D01*
X56779Y82649D01*
X56776Y82612D01*
X56772Y82590D01*
Y82586D01*
Y82583D01*
X56779Y82516D01*
X56794Y82446D01*
X56820Y82383D01*
X56846Y82324D01*
X56876Y82276D01*
X56902Y82235D01*
X56909Y82220D01*
X56916Y82209D01*
X56924Y82205D01*
Y82202D01*
X56953Y82161D01*
X56990Y82120D01*
X57031Y82076D01*
X57076Y82031D01*
X57168Y81943D01*
X57261Y81854D01*
X57309Y81813D01*
X57349Y81776D01*
X57390Y81743D01*
X57423Y81713D01*
X57449Y81691D01*
X57471Y81673D01*
X57486Y81661D01*
X57490Y81658D01*
X57582Y81580D01*
X57667Y81506D01*
X57738Y81439D01*
X57793Y81384D01*
X57841Y81336D01*
X57875Y81302D01*
X57893Y81280D01*
X57901Y81277D01*
Y81273D01*
X57952Y81210D01*
X57993Y81151D01*
X58030Y81092D01*
X58060Y81040D01*
X58082Y80996D01*
X58097Y80962D01*
X58104Y80940D01*
X58108Y80936D01*
Y80933D01*
X58123Y80892D01*
X58130Y80855D01*
X58137Y80818D01*
X58141Y80785D01*
X58145Y80755D01*
Y80733D01*
Y80718D01*
Y80714D01*
X56446D01*
Y81018D01*
X57708D01*
X57664Y81081D01*
X57642Y81106D01*
X57623Y81132D01*
X57605Y81155D01*
X57590Y81169D01*
X57579Y81180D01*
X57575Y81184D01*
X57556Y81203D01*
X57534Y81221D01*
X57482Y81269D01*
X57423Y81325D01*
X57360Y81380D01*
X57301Y81428D01*
X57275Y81450D01*
X57253Y81473D01*
X57235Y81488D01*
X57220Y81499D01*
X57212Y81506D01*
X57209Y81510D01*
X57149Y81561D01*
X57090Y81610D01*
X57038Y81658D01*
X56990Y81699D01*
X56946Y81739D01*
X56909Y81776D01*
X56872Y81810D01*
X56842Y81839D01*
X56813Y81869D01*
X56791Y81891D01*
X56772Y81909D01*
X56754Y81928D01*
X56735Y81950D01*
X56728Y81957D01*
X56676Y82020D01*
X56631Y82076D01*
X56595Y82131D01*
X56565Y82176D01*
X56543Y82216D01*
X56528Y82246D01*
X56520Y82265D01*
X56517Y82272D01*
X56495Y82327D01*
X56480Y82383D01*
X56465Y82435D01*
X56458Y82479D01*
X56454Y82520D01*
X56450Y82550D01*
Y82568D01*
Y82575D01*
X56454Y82631D01*
X56461Y82683D01*
X56469Y82735D01*
X56484Y82779D01*
X56520Y82868D01*
X56558Y82938D01*
X56580Y82971D01*
X56598Y82997D01*
X56617Y83023D01*
X56635Y83042D01*
X56650Y83056D01*
X56657Y83071D01*
X56665Y83075D01*
X56669Y83078D01*
X56709Y83116D01*
X56754Y83149D01*
X56802Y83175D01*
X56850Y83197D01*
X56946Y83234D01*
X57042Y83260D01*
X57083Y83267D01*
X57124Y83275D01*
X57161Y83278D01*
X57190Y83282D01*
X57216Y83286D01*
X57253D01*
X57320Y83282D01*
D02*
G37*
G36*
X60553Y80714D02*
X59632D01*
X59547Y80718D01*
X59469Y80722D01*
X59399Y80729D01*
X59340Y80737D01*
X59288Y80744D01*
X59251Y80748D01*
X59240Y80751D01*
X59229Y80755D01*
X59222D01*
X59155Y80774D01*
X59096Y80796D01*
X59044Y80814D01*
X59000Y80836D01*
X58963Y80855D01*
X58937Y80870D01*
X58922Y80881D01*
X58914Y80884D01*
X58866Y80918D01*
X58826Y80958D01*
X58785Y80996D01*
X58752Y81032D01*
X58722Y81066D01*
X58700Y81092D01*
X58685Y81110D01*
X58681Y81118D01*
X58644Y81177D01*
X58607Y81240D01*
X58578Y81299D01*
X58556Y81358D01*
X58533Y81410D01*
X58518Y81450D01*
X58515Y81465D01*
X58511Y81476D01*
X58507Y81484D01*
Y81488D01*
X58485Y81576D01*
X58467Y81665D01*
X58456Y81750D01*
X58444Y81832D01*
X58441Y81902D01*
Y81932D01*
X58437Y81957D01*
Y81976D01*
Y81994D01*
Y82002D01*
Y82006D01*
X58441Y82131D01*
X58452Y82246D01*
X58470Y82350D01*
X58478Y82398D01*
X58489Y82438D01*
X58500Y82479D01*
X58507Y82512D01*
X58515Y82542D01*
X58526Y82568D01*
X58530Y82590D01*
X58537Y82605D01*
X58541Y82612D01*
Y82616D01*
X58581Y82712D01*
X58630Y82797D01*
X58681Y82871D01*
X58729Y82934D01*
X58774Y82986D01*
X58811Y83023D01*
X58826Y83034D01*
X58837Y83045D01*
X58840Y83049D01*
X58844Y83053D01*
X58903Y83101D01*
X58966Y83138D01*
X59029Y83171D01*
X59088Y83197D01*
X59140Y83215D01*
X59181Y83227D01*
X59196Y83234D01*
X59207D01*
X59214Y83238D01*
X59218D01*
X59281Y83249D01*
X59355Y83260D01*
X59429Y83267D01*
X59503Y83271D01*
X59569Y83275D01*
X60553D01*
Y80714D01*
D02*
G37*
G36*
X86017Y69430D02*
X85721Y69389D01*
X85695Y69430D01*
X85662Y69463D01*
X85632Y69496D01*
X85603Y69522D01*
X85573Y69541D01*
X85551Y69559D01*
X85536Y69567D01*
X85532Y69570D01*
X85484Y69592D01*
X85436Y69611D01*
X85392Y69622D01*
X85347Y69633D01*
X85311Y69637D01*
X85281Y69641D01*
X85211D01*
X85166Y69633D01*
X85088Y69615D01*
X85022Y69589D01*
X84963Y69563D01*
X84918Y69533D01*
X84885Y69507D01*
X84866Y69489D01*
X84859Y69485D01*
Y69481D01*
X84807Y69419D01*
X84770Y69352D01*
X84744Y69282D01*
X84726Y69211D01*
X84715Y69152D01*
X84711Y69126D01*
Y69104D01*
X84707Y69086D01*
Y69071D01*
Y69063D01*
Y69060D01*
Y69008D01*
X84715Y68960D01*
X84733Y68867D01*
X84759Y68790D01*
X84785Y68727D01*
X84815Y68675D01*
X84841Y68634D01*
X84852Y68623D01*
X84859Y68612D01*
X84863Y68608D01*
X84866Y68605D01*
X84896Y68575D01*
X84926Y68549D01*
X84992Y68505D01*
X85055Y68475D01*
X85118Y68457D01*
X85170Y68442D01*
X85214Y68438D01*
X85229Y68434D01*
X85251D01*
X85322Y68438D01*
X85385Y68453D01*
X85440Y68471D01*
X85484Y68494D01*
X85525Y68516D01*
X85555Y68534D01*
X85569Y68549D01*
X85577Y68553D01*
X85621Y68605D01*
X85658Y68660D01*
X85688Y68723D01*
X85710Y68779D01*
X85725Y68834D01*
X85736Y68875D01*
X85740Y68893D01*
X85743Y68904D01*
Y68912D01*
Y68915D01*
X86073Y68889D01*
X86065Y68830D01*
X86054Y68775D01*
X86021Y68671D01*
X85980Y68582D01*
X85958Y68542D01*
X85936Y68508D01*
X85917Y68475D01*
X85895Y68445D01*
X85877Y68423D01*
X85858Y68405D01*
X85843Y68390D01*
X85836Y68375D01*
X85828Y68371D01*
X85825Y68368D01*
X85780Y68335D01*
X85736Y68305D01*
X85688Y68279D01*
X85640Y68257D01*
X85547Y68224D01*
X85455Y68201D01*
X85414Y68190D01*
X85373Y68186D01*
X85340Y68183D01*
X85311Y68179D01*
X85285Y68175D01*
X85251D01*
X85174Y68179D01*
X85100Y68190D01*
X85029Y68205D01*
X84966Y68224D01*
X84907Y68249D01*
X84852Y68275D01*
X84800Y68301D01*
X84755Y68331D01*
X84715Y68360D01*
X84678Y68386D01*
X84648Y68416D01*
X84622Y68438D01*
X84604Y68457D01*
X84589Y68471D01*
X84582Y68483D01*
X84578Y68486D01*
X84541Y68534D01*
X84511Y68586D01*
X84482Y68634D01*
X84460Y68686D01*
X84422Y68786D01*
X84400Y68882D01*
X84393Y68923D01*
X84386Y68963D01*
X84382Y68997D01*
X84378Y69026D01*
X84374Y69052D01*
Y69071D01*
Y69082D01*
Y69086D01*
X84378Y69152D01*
X84386Y69215D01*
X84397Y69278D01*
X84411Y69333D01*
X84430Y69385D01*
X84448Y69437D01*
X84471Y69481D01*
X84489Y69522D01*
X84511Y69559D01*
X84534Y69592D01*
X84552Y69618D01*
X84570Y69644D01*
X84585Y69663D01*
X84596Y69674D01*
X84604Y69681D01*
X84607Y69685D01*
X84652Y69726D01*
X84696Y69763D01*
X84744Y69792D01*
X84792Y69818D01*
X84841Y69844D01*
X84889Y69863D01*
X84977Y69889D01*
X85018Y69900D01*
X85055Y69907D01*
X85088Y69911D01*
X85118Y69914D01*
X85140Y69918D01*
X85222D01*
X85266Y69911D01*
X85355Y69892D01*
X85436Y69866D01*
X85510Y69837D01*
X85569Y69807D01*
X85595Y69792D01*
X85618Y69781D01*
X85636Y69770D01*
X85647Y69763D01*
X85654Y69759D01*
X85658Y69755D01*
X85521Y70447D01*
X84496D01*
Y70747D01*
X85769D01*
X86017Y69430D01*
D02*
G37*
G36*
X87542Y70817D02*
X87660Y70799D01*
X87764Y70776D01*
X87812Y70762D01*
X87856Y70747D01*
X87897Y70732D01*
X87934Y70717D01*
X87963Y70706D01*
X87993Y70695D01*
X88011Y70684D01*
X88026Y70677D01*
X88037Y70673D01*
X88041Y70669D01*
X88141Y70606D01*
X88226Y70532D01*
X88300Y70458D01*
X88363Y70384D01*
X88411Y70318D01*
X88429Y70288D01*
X88444Y70262D01*
X88459Y70244D01*
X88467Y70229D01*
X88470Y70218D01*
X88474Y70214D01*
X88526Y70099D01*
X88563Y69981D01*
X88589Y69863D01*
X88607Y69755D01*
X88614Y69707D01*
X88618Y69659D01*
X88622Y69622D01*
Y69585D01*
X88626Y69559D01*
Y69537D01*
Y69522D01*
Y69519D01*
X88618Y69385D01*
X88603Y69256D01*
X88585Y69141D01*
X88570Y69086D01*
X88559Y69037D01*
X88548Y68993D01*
X88533Y68952D01*
X88522Y68915D01*
X88515Y68886D01*
X88503Y68864D01*
X88500Y68845D01*
X88492Y68834D01*
Y68830D01*
X88437Y68719D01*
X88374Y68619D01*
X88307Y68534D01*
X88274Y68501D01*
X88245Y68468D01*
X88215Y68438D01*
X88185Y68412D01*
X88160Y68390D01*
X88137Y68375D01*
X88122Y68360D01*
X88108Y68349D01*
X88100Y68346D01*
X88097Y68342D01*
X88045Y68312D01*
X87993Y68286D01*
X87882Y68246D01*
X87771Y68216D01*
X87664Y68198D01*
X87612Y68190D01*
X87567Y68183D01*
X87527Y68179D01*
X87493D01*
X87464Y68175D01*
X87423D01*
X87349Y68179D01*
X87279Y68186D01*
X87212Y68194D01*
X87149Y68209D01*
X87090Y68227D01*
X87035Y68246D01*
X86983Y68264D01*
X86935Y68286D01*
X86894Y68305D01*
X86853Y68323D01*
X86824Y68342D01*
X86794Y68360D01*
X86776Y68375D01*
X86757Y68383D01*
X86750Y68390D01*
X86746Y68394D01*
X86694Y68438D01*
X86650Y68483D01*
X86609Y68534D01*
X86568Y68586D01*
X86502Y68690D01*
X86450Y68793D01*
X86428Y68841D01*
X86409Y68886D01*
X86395Y68927D01*
X86383Y68960D01*
X86372Y68989D01*
X86365Y69012D01*
X86361Y69026D01*
Y69030D01*
X86702Y69115D01*
X86716Y69056D01*
X86735Y69001D01*
X86753Y68949D01*
X86772Y68901D01*
X86794Y68856D01*
X86816Y68819D01*
X86842Y68782D01*
X86864Y68749D01*
X86883Y68719D01*
X86905Y68697D01*
X86924Y68675D01*
X86939Y68656D01*
X86953Y68645D01*
X86964Y68634D01*
X86968Y68630D01*
X86972Y68627D01*
X87009Y68597D01*
X87050Y68575D01*
X87131Y68534D01*
X87209Y68505D01*
X87286Y68486D01*
X87353Y68471D01*
X87379Y68468D01*
X87405D01*
X87427Y68464D01*
X87453D01*
X87538Y68468D01*
X87619Y68483D01*
X87693Y68501D01*
X87760Y68523D01*
X87812Y68545D01*
X87834Y68556D01*
X87852Y68564D01*
X87867Y68571D01*
X87878Y68579D01*
X87886Y68582D01*
X87889D01*
X87960Y68634D01*
X88019Y68690D01*
X88071Y68753D01*
X88111Y68812D01*
X88145Y68864D01*
X88167Y68908D01*
X88174Y68927D01*
X88182Y68938D01*
X88185Y68945D01*
Y68949D01*
X88215Y69045D01*
X88237Y69141D01*
X88256Y69237D01*
X88267Y69326D01*
X88270Y69367D01*
X88274Y69404D01*
Y69437D01*
X88278Y69463D01*
Y69485D01*
Y69504D01*
Y69515D01*
Y69519D01*
X88274Y69615D01*
X88267Y69704D01*
X88252Y69785D01*
X88237Y69859D01*
X88226Y69922D01*
X88219Y69948D01*
X88211Y69970D01*
X88208Y69988D01*
X88204Y69999D01*
X88200Y70007D01*
Y70011D01*
X88163Y70096D01*
X88122Y70173D01*
X88078Y70236D01*
X88030Y70292D01*
X87989Y70336D01*
X87956Y70366D01*
X87930Y70384D01*
X87926Y70392D01*
X87923D01*
X87845Y70440D01*
X87760Y70477D01*
X87678Y70503D01*
X87601Y70517D01*
X87530Y70529D01*
X87501Y70532D01*
X87475D01*
X87456Y70536D01*
X87427D01*
X87334Y70532D01*
X87249Y70517D01*
X87179Y70495D01*
X87116Y70473D01*
X87068Y70447D01*
X87031Y70429D01*
X87009Y70414D01*
X87001Y70407D01*
X86942Y70351D01*
X86887Y70288D01*
X86842Y70222D01*
X86805Y70155D01*
X86776Y70096D01*
X86765Y70066D01*
X86757Y70044D01*
X86750Y70025D01*
X86742Y70011D01*
X86739Y70003D01*
Y69999D01*
X86406Y70077D01*
X86428Y70144D01*
X86450Y70203D01*
X86480Y70258D01*
X86506Y70314D01*
X86535Y70362D01*
X86568Y70407D01*
X86598Y70451D01*
X86628Y70488D01*
X86657Y70517D01*
X86683Y70547D01*
X86709Y70573D01*
X86727Y70591D01*
X86746Y70610D01*
X86761Y70621D01*
X86768Y70625D01*
X86772Y70628D01*
X86824Y70662D01*
X86875Y70695D01*
X86927Y70721D01*
X86983Y70743D01*
X87094Y70776D01*
X87194Y70799D01*
X87242Y70810D01*
X87283Y70814D01*
X87323Y70817D01*
X87357Y70821D01*
X87382Y70825D01*
X87419D01*
X87542Y70817D01*
D02*
G37*
G36*
X71527Y70317D02*
X71645Y70299D01*
X71749Y70276D01*
X71797Y70262D01*
X71841Y70247D01*
X71882Y70232D01*
X71919Y70217D01*
X71949Y70206D01*
X71978Y70195D01*
X71997Y70184D01*
X72012Y70177D01*
X72023Y70173D01*
X72026Y70169D01*
X72126Y70106D01*
X72211Y70032D01*
X72285Y69958D01*
X72348Y69884D01*
X72396Y69818D01*
X72415Y69788D01*
X72430Y69762D01*
X72444Y69744D01*
X72452Y69729D01*
X72455Y69718D01*
X72459Y69714D01*
X72511Y69599D01*
X72548Y69481D01*
X72574Y69363D01*
X72592Y69255D01*
X72600Y69207D01*
X72603Y69159D01*
X72607Y69122D01*
Y69085D01*
X72611Y69059D01*
Y69037D01*
Y69022D01*
Y69019D01*
X72603Y68885D01*
X72589Y68756D01*
X72570Y68641D01*
X72555Y68586D01*
X72544Y68537D01*
X72533Y68493D01*
X72518Y68452D01*
X72507Y68415D01*
X72500Y68386D01*
X72489Y68364D01*
X72485Y68345D01*
X72478Y68334D01*
Y68330D01*
X72422Y68219D01*
X72359Y68119D01*
X72293Y68034D01*
X72259Y68001D01*
X72230Y67968D01*
X72200Y67938D01*
X72171Y67912D01*
X72145Y67890D01*
X72123Y67875D01*
X72108Y67860D01*
X72093Y67849D01*
X72085Y67846D01*
X72082Y67842D01*
X72030Y67812D01*
X71978Y67786D01*
X71867Y67746D01*
X71756Y67716D01*
X71649Y67698D01*
X71597Y67690D01*
X71553Y67683D01*
X71512Y67679D01*
X71479D01*
X71449Y67675D01*
X71408D01*
X71334Y67679D01*
X71264Y67686D01*
X71197Y67694D01*
X71135Y67709D01*
X71075Y67727D01*
X71020Y67746D01*
X70968Y67764D01*
X70920Y67786D01*
X70879Y67805D01*
X70838Y67823D01*
X70809Y67842D01*
X70779Y67860D01*
X70761Y67875D01*
X70742Y67883D01*
X70735Y67890D01*
X70731Y67894D01*
X70679Y67938D01*
X70635Y67983D01*
X70594Y68034D01*
X70554Y68086D01*
X70487Y68190D01*
X70435Y68293D01*
X70413Y68341D01*
X70395Y68386D01*
X70380Y68427D01*
X70369Y68460D01*
X70358Y68489D01*
X70350Y68512D01*
X70346Y68526D01*
Y68530D01*
X70687Y68615D01*
X70702Y68556D01*
X70720Y68501D01*
X70739Y68449D01*
X70757Y68401D01*
X70779Y68356D01*
X70802Y68319D01*
X70827Y68282D01*
X70850Y68249D01*
X70868Y68219D01*
X70890Y68197D01*
X70909Y68175D01*
X70924Y68156D01*
X70938Y68145D01*
X70950Y68134D01*
X70953Y68130D01*
X70957Y68127D01*
X70994Y68097D01*
X71035Y68075D01*
X71116Y68034D01*
X71194Y68005D01*
X71272Y67986D01*
X71338Y67971D01*
X71364Y67968D01*
X71390D01*
X71412Y67964D01*
X71438D01*
X71523Y67968D01*
X71604Y67983D01*
X71678Y68001D01*
X71745Y68023D01*
X71797Y68045D01*
X71819Y68056D01*
X71838Y68064D01*
X71852Y68071D01*
X71864Y68079D01*
X71871Y68082D01*
X71874D01*
X71945Y68134D01*
X72004Y68190D01*
X72056Y68253D01*
X72097Y68312D01*
X72130Y68364D01*
X72152Y68408D01*
X72159Y68427D01*
X72167Y68438D01*
X72171Y68445D01*
Y68449D01*
X72200Y68545D01*
X72222Y68641D01*
X72241Y68737D01*
X72252Y68826D01*
X72256Y68867D01*
X72259Y68904D01*
Y68937D01*
X72263Y68963D01*
Y68985D01*
Y69004D01*
Y69015D01*
Y69019D01*
X72259Y69115D01*
X72252Y69204D01*
X72237Y69285D01*
X72222Y69359D01*
X72211Y69422D01*
X72204Y69448D01*
X72197Y69470D01*
X72193Y69488D01*
X72189Y69499D01*
X72185Y69507D01*
Y69511D01*
X72148Y69596D01*
X72108Y69673D01*
X72063Y69736D01*
X72015Y69792D01*
X71974Y69836D01*
X71941Y69866D01*
X71915Y69884D01*
X71912Y69892D01*
X71908D01*
X71830Y69940D01*
X71745Y69977D01*
X71664Y70003D01*
X71586Y70017D01*
X71516Y70029D01*
X71486Y70032D01*
X71460D01*
X71442Y70036D01*
X71412D01*
X71320Y70032D01*
X71235Y70017D01*
X71164Y69995D01*
X71101Y69973D01*
X71053Y69947D01*
X71016Y69929D01*
X70994Y69914D01*
X70986Y69907D01*
X70927Y69851D01*
X70872Y69788D01*
X70827Y69722D01*
X70790Y69655D01*
X70761Y69596D01*
X70750Y69566D01*
X70742Y69544D01*
X70735Y69525D01*
X70727Y69511D01*
X70724Y69503D01*
Y69499D01*
X70391Y69577D01*
X70413Y69644D01*
X70435Y69703D01*
X70465Y69758D01*
X70491Y69814D01*
X70520Y69862D01*
X70554Y69907D01*
X70583Y69951D01*
X70613Y69988D01*
X70642Y70017D01*
X70668Y70047D01*
X70694Y70073D01*
X70713Y70091D01*
X70731Y70110D01*
X70746Y70121D01*
X70753Y70125D01*
X70757Y70129D01*
X70809Y70162D01*
X70861Y70195D01*
X70912Y70221D01*
X70968Y70243D01*
X71079Y70276D01*
X71179Y70299D01*
X71227Y70310D01*
X71268Y70314D01*
X71308Y70317D01*
X71342Y70321D01*
X71368Y70325D01*
X71405D01*
X71527Y70317D01*
D02*
G37*
G36*
X70165Y68623D02*
Y68334D01*
X69051D01*
Y67720D01*
X68737D01*
Y68334D01*
X68389D01*
Y68623D01*
X68737D01*
Y70280D01*
X68992D01*
X70165Y68623D01*
D02*
G37*
%LPC*%
G36*
X89207Y63990D02*
X88400D01*
X88300Y63986D01*
X88215Y63971D01*
X88141Y63953D01*
X88086Y63931D01*
X88037Y63908D01*
X88008Y63890D01*
X87989Y63875D01*
X87982Y63871D01*
X87937Y63823D01*
X87904Y63775D01*
X87882Y63723D01*
X87863Y63679D01*
X87856Y63635D01*
X87852Y63601D01*
X87849Y63579D01*
Y63575D01*
Y63572D01*
X87852Y63527D01*
X87860Y63483D01*
X87871Y63446D01*
X87882Y63412D01*
X87897Y63383D01*
X87908Y63361D01*
X87915Y63346D01*
X87919Y63342D01*
X87945Y63305D01*
X87978Y63272D01*
X88011Y63246D01*
X88045Y63224D01*
X88074Y63209D01*
X88097Y63198D01*
X88111Y63191D01*
X88119Y63187D01*
X88171Y63172D01*
X88230Y63161D01*
X88289Y63153D01*
X88348Y63150D01*
X88400Y63146D01*
X88444Y63142D01*
X89207D01*
Y63990D01*
D02*
G37*
G36*
X87960Y90175D02*
X87153D01*
X87053Y90172D01*
X86968Y90157D01*
X86894Y90139D01*
X86839Y90116D01*
X86790Y90094D01*
X86761Y90076D01*
X86742Y90061D01*
X86735Y90057D01*
X86690Y90009D01*
X86657Y89961D01*
X86635Y89909D01*
X86616Y89865D01*
X86609Y89820D01*
X86605Y89787D01*
X86602Y89765D01*
Y89761D01*
Y89757D01*
X86605Y89713D01*
X86613Y89669D01*
X86624Y89632D01*
X86635Y89598D01*
X86650Y89569D01*
X86661Y89547D01*
X86668Y89532D01*
X86672Y89528D01*
X86698Y89491D01*
X86731Y89458D01*
X86765Y89432D01*
X86798Y89410D01*
X86827Y89395D01*
X86850Y89384D01*
X86864Y89376D01*
X86872Y89373D01*
X86924Y89358D01*
X86983Y89347D01*
X87042Y89339D01*
X87101Y89336D01*
X87153Y89332D01*
X87197Y89328D01*
X87960D01*
Y90175D01*
D02*
G37*
G36*
X73716Y63512D02*
X72909D01*
X72809Y63508D01*
X72724Y63493D01*
X72650Y63475D01*
X72595Y63453D01*
X72547Y63431D01*
X72517Y63412D01*
X72499Y63397D01*
X72491Y63394D01*
X72447Y63345D01*
X72413Y63297D01*
X72391Y63246D01*
X72373Y63201D01*
X72365Y63157D01*
X72362Y63124D01*
X72358Y63101D01*
Y63098D01*
Y63094D01*
X72362Y63050D01*
X72369Y63005D01*
X72380Y62968D01*
X72391Y62935D01*
X72406Y62905D01*
X72417Y62883D01*
X72425Y62868D01*
X72428Y62864D01*
X72454Y62827D01*
X72487Y62794D01*
X72521Y62768D01*
X72554Y62746D01*
X72584Y62731D01*
X72606Y62720D01*
X72621Y62713D01*
X72628Y62709D01*
X72680Y62694D01*
X72739Y62683D01*
X72798Y62676D01*
X72857Y62672D01*
X72909Y62668D01*
X72954Y62665D01*
X73716D01*
Y63512D01*
D02*
G37*
G36*
X68806Y63549D02*
X68784D01*
X68743Y63545D01*
X68702Y63542D01*
X68665Y63530D01*
X68632Y63516D01*
X68569Y63482D01*
X68514Y63445D01*
X68473Y63405D01*
X68440Y63371D01*
X68428Y63357D01*
X68421Y63345D01*
X68414Y63342D01*
Y63338D01*
X68388Y63294D01*
X68366Y63242D01*
X68343Y63183D01*
X68329Y63120D01*
X68314Y63053D01*
X68303Y62983D01*
X68284Y62842D01*
X68277Y62772D01*
X68273Y62709D01*
X68269Y62650D01*
Y62602D01*
X68266Y62557D01*
Y62524D01*
Y62506D01*
Y62502D01*
Y62498D01*
Y62384D01*
X68273Y62280D01*
X68281Y62187D01*
X68288Y62099D01*
X68299Y62024D01*
X68314Y61954D01*
X68329Y61895D01*
X68340Y61839D01*
X68354Y61795D01*
X68369Y61758D01*
X68380Y61725D01*
X68395Y61699D01*
X68403Y61680D01*
X68410Y61669D01*
X68417Y61662D01*
Y61658D01*
X68447Y61621D01*
X68477Y61592D01*
X68506Y61562D01*
X68536Y61540D01*
X68599Y61503D01*
X68654Y61477D01*
X68706Y61462D01*
X68743Y61455D01*
X68758Y61451D01*
X68780D01*
X68821Y61455D01*
X68858Y61458D01*
X68928Y61484D01*
X68991Y61518D01*
X69046Y61555D01*
X69087Y61592D01*
X69120Y61625D01*
X69139Y61651D01*
X69146Y61655D01*
Y61658D01*
X69172Y61703D01*
X69194Y61754D01*
X69217Y61814D01*
X69231Y61876D01*
X69246Y61943D01*
X69257Y62014D01*
X69276Y62158D01*
X69283Y62224D01*
X69287Y62287D01*
X69291Y62347D01*
Y62395D01*
X69294Y62439D01*
Y62472D01*
Y62491D01*
Y62498D01*
X69291Y62613D01*
X69287Y62716D01*
X69279Y62813D01*
X69268Y62901D01*
X69257Y62979D01*
X69243Y63050D01*
X69228Y63112D01*
X69213Y63168D01*
X69198Y63216D01*
X69187Y63257D01*
X69172Y63290D01*
X69161Y63320D01*
X69150Y63338D01*
X69143Y63353D01*
X69135Y63360D01*
Y63364D01*
X69109Y63397D01*
X69083Y63427D01*
X69054Y63449D01*
X69024Y63471D01*
X68965Y63504D01*
X68910Y63527D01*
X68861Y63538D01*
X68821Y63545D01*
X68806Y63549D01*
D02*
G37*
G36*
X69529Y90312D02*
X69470D01*
X69433Y90305D01*
X69366Y90287D01*
X69307Y90261D01*
X69255Y90235D01*
X69215Y90205D01*
X69185Y90179D01*
X69167Y90161D01*
X69159Y90157D01*
Y90153D01*
X69111Y90091D01*
X69074Y90020D01*
X69048Y89946D01*
X69033Y89876D01*
X69022Y89817D01*
X69019Y89791D01*
Y89765D01*
X69015Y89746D01*
Y89732D01*
Y89724D01*
Y89720D01*
X69022Y89624D01*
X69037Y89539D01*
X69059Y89469D01*
X69085Y89410D01*
X69115Y89362D01*
X69137Y89328D01*
X69152Y89306D01*
X69159Y89299D01*
X69215Y89247D01*
X69274Y89210D01*
X69333Y89184D01*
X69392Y89166D01*
X69440Y89154D01*
X69481Y89151D01*
X69496Y89147D01*
X69518D01*
X69596Y89154D01*
X69666Y89169D01*
X69729Y89195D01*
X69784Y89225D01*
X69825Y89251D01*
X69858Y89276D01*
X69877Y89291D01*
X69884Y89299D01*
X69933Y89358D01*
X69969Y89425D01*
X69992Y89491D01*
X70010Y89554D01*
X70021Y89609D01*
X70025Y89632D01*
Y89654D01*
X70029Y89672D01*
Y89684D01*
Y89691D01*
Y89695D01*
X70021Y89791D01*
X70007Y89880D01*
X69981Y89957D01*
X69951Y90020D01*
X69925Y90072D01*
X69899Y90109D01*
X69892Y90120D01*
X69884Y90131D01*
X69877Y90135D01*
Y90139D01*
X69847Y90168D01*
X69818Y90198D01*
X69755Y90238D01*
X69692Y90272D01*
X69633Y90290D01*
X69585Y90305D01*
X69544Y90309D01*
X69529Y90312D01*
D02*
G37*
G36*
X72460Y90276D02*
X71653D01*
X71553Y90272D01*
X71468Y90257D01*
X71394Y90238D01*
X71338Y90216D01*
X71290Y90194D01*
X71261Y90176D01*
X71242Y90161D01*
X71235Y90157D01*
X71191Y90109D01*
X71157Y90061D01*
X71135Y90009D01*
X71117Y89965D01*
X71109Y89920D01*
X71105Y89887D01*
X71102Y89865D01*
Y89861D01*
Y89857D01*
X71105Y89813D01*
X71113Y89769D01*
X71124Y89732D01*
X71135Y89698D01*
X71150Y89669D01*
X71161Y89647D01*
X71168Y89632D01*
X71172Y89628D01*
X71198Y89591D01*
X71231Y89558D01*
X71264Y89532D01*
X71298Y89510D01*
X71327Y89495D01*
X71350Y89484D01*
X71364Y89476D01*
X71372Y89473D01*
X71424Y89458D01*
X71483Y89447D01*
X71542Y89439D01*
X71601Y89436D01*
X71653Y89432D01*
X71697Y89428D01*
X72460D01*
Y90276D01*
D02*
G37*
G36*
X100226Y82993D02*
X99634D01*
X99586Y82990D01*
X99538D01*
X99493Y82986D01*
X99419Y82975D01*
X99360Y82968D01*
X99312Y82956D01*
X99279Y82945D01*
X99260Y82942D01*
X99253Y82938D01*
X99186Y82905D01*
X99124Y82864D01*
X99068Y82816D01*
X99020Y82768D01*
X98983Y82723D01*
X98953Y82686D01*
X98946Y82672D01*
X98939Y82661D01*
X98931Y82653D01*
Y82649D01*
X98909Y82609D01*
X98887Y82561D01*
X98853Y82464D01*
X98831Y82361D01*
X98813Y82261D01*
X98809Y82216D01*
X98805Y82172D01*
X98801Y82135D01*
Y82102D01*
X98798Y82072D01*
Y82054D01*
Y82039D01*
Y82035D01*
X98801Y81932D01*
X98809Y81835D01*
X98820Y81750D01*
X98831Y81676D01*
X98839Y81647D01*
X98846Y81621D01*
X98853Y81595D01*
X98857Y81576D01*
X98861Y81561D01*
X98864Y81551D01*
X98868Y81543D01*
Y81539D01*
X98894Y81469D01*
X98924Y81406D01*
X98957Y81351D01*
X98987Y81302D01*
X99013Y81265D01*
X99035Y81240D01*
X99050Y81225D01*
X99053Y81217D01*
X99090Y81188D01*
X99127Y81162D01*
X99164Y81140D01*
X99201Y81118D01*
X99234Y81103D01*
X99260Y81092D01*
X99279Y81088D01*
X99286Y81084D01*
X99342Y81069D01*
X99408Y81058D01*
X99475Y81051D01*
X99538Y81047D01*
X99593Y81044D01*
X99619Y81040D01*
X100226D01*
Y82993D01*
D02*
G37*
G36*
X60213Y82971D02*
X59621D01*
X59573Y82968D01*
X59525D01*
X59481Y82964D01*
X59407Y82953D01*
X59347Y82945D01*
X59299Y82934D01*
X59266Y82923D01*
X59247Y82919D01*
X59240Y82916D01*
X59173Y82882D01*
X59110Y82842D01*
X59055Y82794D01*
X59007Y82746D01*
X58970Y82701D01*
X58940Y82664D01*
X58933Y82649D01*
X58925Y82638D01*
X58918Y82631D01*
Y82627D01*
X58896Y82586D01*
X58874Y82538D01*
X58840Y82442D01*
X58818Y82339D01*
X58800Y82239D01*
X58796Y82194D01*
X58792Y82150D01*
X58789Y82113D01*
Y82079D01*
X58785Y82050D01*
Y82031D01*
Y82017D01*
Y82013D01*
X58789Y81909D01*
X58796Y81813D01*
X58807Y81728D01*
X58818Y81654D01*
X58826Y81625D01*
X58833Y81599D01*
X58840Y81573D01*
X58844Y81554D01*
X58848Y81539D01*
X58851Y81528D01*
X58855Y81521D01*
Y81517D01*
X58881Y81447D01*
X58911Y81384D01*
X58944Y81328D01*
X58974Y81280D01*
X59000Y81243D01*
X59022Y81217D01*
X59036Y81203D01*
X59040Y81195D01*
X59077Y81166D01*
X59114Y81140D01*
X59151Y81118D01*
X59188Y81095D01*
X59222Y81081D01*
X59247Y81069D01*
X59266Y81066D01*
X59273Y81062D01*
X59329Y81047D01*
X59395Y81036D01*
X59462Y81029D01*
X59525Y81025D01*
X59580Y81021D01*
X59606Y81018D01*
X60213D01*
Y82971D01*
D02*
G37*
G36*
X69051Y69770D02*
Y68623D01*
X69858D01*
X69051Y69770D01*
D02*
G37*
%LPD*%
D12*
X102693Y67925D02*
Y71075D01*
X93260Y74335D02*
X94835D01*
Y73547D02*
Y74335D01*
Y78665D02*
Y79453D01*
X93260Y78665D02*
X94835D01*
X93260Y79453D02*
X100740D01*
X93260Y73547D02*
X100740D01*
Y78665D02*
Y79453D01*
X93260Y78665D02*
Y79453D01*
X100740Y73547D02*
Y74335D01*
X93260Y73547D02*
Y74335D01*
X61165Y78665D02*
X62740D01*
X61165D02*
Y79453D01*
Y73547D02*
Y74335D01*
X62740D01*
X55260Y73547D02*
X62740D01*
X55260Y79453D02*
X62740D01*
X55260Y73547D02*
Y74335D01*
X62740Y73547D02*
Y74335D01*
X55260Y78665D02*
Y79453D01*
X62740Y78665D02*
Y79453D01*
X53807Y67925D02*
Y71075D01*
M02*
