G04*
G04 #@! TF.GenerationSoftware,Altium Limited,Altium Designer,25.0.2 (28)*
G04*
G04 Layer_Color=8388736*
%FSLAX25Y25*%
%MOIN*%
G70*
G04*
G04 #@! TF.SameCoordinates,07AE1BBE-3F5C-4E9B-B064-B64FE649ED2B*
G04*
G04*
G04 #@! TF.FilePolarity,Negative*
G04*
G01*
G75*
%ADD23R,0.01575X0.01968*%
%ADD30R,0.07417X0.02653*%
%ADD31O,0.07417X0.02653*%
%ADD32R,0.14967X0.07880*%
%ADD33R,0.06906X0.06118*%
%ADD34R,0.05331X0.04937*%
%ADD35O,0.03362X0.09661*%
%ADD36O,0.09661X0.03362*%
%ADD37R,0.04937X0.05331*%
%ADD38R,0.03756X0.04937*%
%ADD39R,0.06118X0.06906*%
%ADD40R,0.05912X0.16935*%
%ADD41R,0.03756X0.04937*%
%ADD42R,0.05124X0.14179*%
%ADD43R,0.09465X0.10646*%
%ADD44R,0.06906X0.06906*%
%ADD45C,0.06906*%
%ADD46C,0.05900*%
%ADD47C,0.03500*%
D23*
X32559Y34260D02*
D03*
X30000D02*
D03*
X27441D02*
D03*
Y41740D02*
D03*
X30000D02*
D03*
X32559D02*
D03*
D30*
X110468Y24323D02*
D03*
D31*
Y26882D02*
D03*
Y29441D02*
D03*
Y32000D02*
D03*
Y34559D02*
D03*
Y37118D02*
D03*
Y39677D02*
D03*
Y42236D02*
D03*
X83500Y24323D02*
D03*
Y26882D02*
D03*
Y29441D02*
D03*
Y32000D02*
D03*
Y34559D02*
D03*
Y37118D02*
D03*
Y39677D02*
D03*
Y42236D02*
D03*
D32*
X108768Y152760D02*
D03*
Y138587D02*
D03*
D33*
X82000Y163260D02*
D03*
Y170740D02*
D03*
X99000Y163260D02*
D03*
Y170740D02*
D03*
X107500Y163260D02*
D03*
Y170740D02*
D03*
X90500Y163260D02*
D03*
Y170740D02*
D03*
X116000Y163260D02*
D03*
Y170740D02*
D03*
D34*
X28346Y71000D02*
D03*
X21654D02*
D03*
X49654Y60000D02*
D03*
X56346D02*
D03*
X43347Y71000D02*
D03*
X36654D02*
D03*
X47346Y34000D02*
D03*
X40654D02*
D03*
X80347Y15000D02*
D03*
X73654D02*
D03*
X65346D02*
D03*
X58653D02*
D03*
D35*
X133500Y37551D02*
D03*
X138500D02*
D03*
X143500D02*
D03*
X148500D02*
D03*
X153500D02*
D03*
X158500D02*
D03*
X163500D02*
D03*
X168500D02*
D03*
X133500Y56449D02*
D03*
X138500D02*
D03*
X143500D02*
D03*
X148500D02*
D03*
X153500D02*
D03*
X158500D02*
D03*
X163500D02*
D03*
X168500D02*
D03*
D36*
X40449Y48500D02*
D03*
Y53500D02*
D03*
Y58500D02*
D03*
Y63500D02*
D03*
X21551Y48500D02*
D03*
Y53500D02*
D03*
Y58500D02*
D03*
Y63500D02*
D03*
D37*
X13000Y57653D02*
D03*
Y64346D02*
D03*
X6500Y64500D02*
D03*
Y57807D02*
D03*
X14500Y33654D02*
D03*
Y40346D02*
D03*
X21000Y33654D02*
D03*
Y40347D02*
D03*
X73500Y21654D02*
D03*
Y28346D02*
D03*
X96000Y147653D02*
D03*
Y154347D02*
D03*
X76000Y145653D02*
D03*
Y152347D02*
D03*
X74500Y171346D02*
D03*
Y164654D02*
D03*
D38*
X62000Y40118D02*
D03*
X65740Y29882D02*
D03*
X58260D02*
D03*
D39*
X59260Y22500D02*
D03*
X66740D02*
D03*
D40*
X45361Y139268D02*
D03*
Y164994D02*
D03*
D41*
X82520Y143764D02*
D03*
X86260D02*
D03*
X90000D02*
D03*
X82520Y154000D02*
D03*
X86260D02*
D03*
X90000D02*
D03*
D42*
X133710Y166414D02*
D03*
Y145390D02*
D03*
D43*
X16000Y136535D02*
D03*
Y153465D02*
D03*
D44*
X15000Y13000D02*
D03*
D45*
Y23000D02*
D03*
X25000Y13000D02*
D03*
Y23000D02*
D03*
X35000Y13000D02*
D03*
Y23000D02*
D03*
X45000Y13000D02*
D03*
Y23000D02*
D03*
D46*
X16000Y96000D02*
D03*
X29779Y115685D02*
D03*
X57339D02*
D03*
X71118Y96000D02*
D03*
X84898Y115685D02*
D03*
X98677Y96000D02*
D03*
X112457Y115685D02*
D03*
X126236Y96000D02*
D03*
X140016Y115685D02*
D03*
X153795Y96000D02*
D03*
X167575Y115685D02*
D03*
X43559Y96000D02*
D03*
X16064Y115552D02*
D03*
X29779Y96000D02*
D03*
X43559Y115685D02*
D03*
X57339Y96000D02*
D03*
X71118Y115685D02*
D03*
X84898Y96000D02*
D03*
X98677Y115685D02*
D03*
X112443Y95823D02*
D03*
X126236Y115685D02*
D03*
X140016Y96000D02*
D03*
X153796Y115609D02*
D03*
X167575Y96000D02*
D03*
D47*
X92500Y34500D02*
D03*
X9500Y40500D02*
D03*
X30000Y48500D02*
D03*
X65500Y9000D02*
D03*
X58500Y9500D02*
D03*
X122642Y149859D02*
D03*
X12000Y71000D02*
D03*
Y48500D02*
D03*
X127500Y171000D02*
D03*
X122500D02*
D03*
X62000Y171500D02*
D03*
X55000D02*
D03*
X76000Y139000D02*
D03*
X43358Y74812D02*
D03*
X126000Y146500D02*
D03*
X64181Y58000D02*
D03*
M02*
