G04*
G04 #@! TF.GenerationSoftware,Altium Limited,Altium Designer,25.0.2 (28)*
G04*
G04 Layer_Color=16711935*
%FSLAX25Y25*%
%MOIN*%
G70*
G04*
G04 #@! TF.SameCoordinates,07AE1BBE-3F5C-4E9B-B064-B64FE649ED2B*
G04*
G04*
G04 #@! TF.FilePolarity,Negative*
G04*
G01*
G75*
%ADD34R,0.05331X0.04937*%
%ADD37R,0.04937X0.05331*%
%ADD44R,0.06906X0.06906*%
%ADD45C,0.06906*%
%ADD46C,0.05900*%
%ADD47C,0.03500*%
%ADD58R,0.06709X0.03165*%
D34*
X92654Y63000D02*
D03*
X99347D02*
D03*
Y69500D02*
D03*
X92654D02*
D03*
X57153D02*
D03*
X63846D02*
D03*
Y63000D02*
D03*
X57153D02*
D03*
D37*
X85000Y83346D02*
D03*
Y76653D02*
D03*
X71000Y83346D02*
D03*
Y76653D02*
D03*
D44*
X15000Y13000D02*
D03*
D45*
Y23000D02*
D03*
X25000Y13000D02*
D03*
Y23000D02*
D03*
X35000Y13000D02*
D03*
Y23000D02*
D03*
X45000Y13000D02*
D03*
Y23000D02*
D03*
D46*
X16000Y96000D02*
D03*
X29779Y115685D02*
D03*
X57339D02*
D03*
X71118Y96000D02*
D03*
X84898Y115685D02*
D03*
X98677Y96000D02*
D03*
X112457Y115685D02*
D03*
X126236Y96000D02*
D03*
X140016Y115685D02*
D03*
X153795Y96000D02*
D03*
X167575Y115685D02*
D03*
X43559Y96000D02*
D03*
X16064Y115552D02*
D03*
X29779Y96000D02*
D03*
X43559Y115685D02*
D03*
X57339Y96000D02*
D03*
X71118Y115685D02*
D03*
X84898Y96000D02*
D03*
X98677Y115685D02*
D03*
X112443Y95823D02*
D03*
X126236Y115685D02*
D03*
X140016Y96000D02*
D03*
X153796Y115609D02*
D03*
X167575Y96000D02*
D03*
D47*
X92500Y34500D02*
D03*
X9500Y40500D02*
D03*
X30000Y48500D02*
D03*
X65500Y9000D02*
D03*
X58500Y9500D02*
D03*
X122642Y149859D02*
D03*
X12000Y71000D02*
D03*
Y48500D02*
D03*
X127500Y171000D02*
D03*
X122500D02*
D03*
X62000Y171500D02*
D03*
X55000D02*
D03*
X76000Y139000D02*
D03*
X43358Y74812D02*
D03*
X126000Y146500D02*
D03*
X64181Y58000D02*
D03*
D58*
X101626Y76500D02*
D03*
X92374D02*
D03*
X54374D02*
D03*
X63626D02*
D03*
M02*
