G04*
G04 #@! TF.GenerationSoftware,Altium Limited,Altium Designer,25.0.2 (28)*
G04*
G04 Layer_Physical_Order=2*
G04 Layer_Color=16711680*
%FSLAX25Y25*%
%MOIN*%
G70*
G04*
G04 #@! TF.SameCoordinates,07AE1BBE-3F5C-4E9B-B064-B64FE649ED2B*
G04*
G04*
G04 #@! TF.FilePolarity,Positive*
G04*
G01*
G75*
%ADD11C,0.01000*%
%ADD19R,0.04331X0.03937*%
%ADD22R,0.03937X0.04331*%
%ADD46C,0.05900*%
%ADD48C,0.02000*%
%ADD50C,0.05000*%
%ADD53C,0.01500*%
%ADD54R,0.05906X0.05906*%
%ADD55C,0.05906*%
%ADD56C,0.02500*%
%ADD57R,0.05709X0.02165*%
G36*
X175961Y1204D02*
X1204D01*
Y175961D01*
X175961D01*
Y1204D01*
D02*
G37*
%LPC*%
G36*
X30779Y119506D02*
Y116685D01*
X33601D01*
X33460Y117210D01*
X32940Y118110D01*
X32205Y118846D01*
X31304Y119366D01*
X30779Y119506D01*
D02*
G37*
G36*
X28780D02*
X28255Y119366D01*
X27354Y118846D01*
X26619Y118110D01*
X26099Y117210D01*
X25958Y116685D01*
X28780D01*
Y119506D01*
D02*
G37*
G36*
X168067Y119422D02*
X167083D01*
X166132Y119168D01*
X165280Y118676D01*
X164584Y117980D01*
X164092Y117128D01*
X163837Y116177D01*
Y115193D01*
X164092Y114242D01*
X164584Y113390D01*
X165280Y112694D01*
X166132Y112202D01*
X167083Y111948D01*
X168067D01*
X169017Y112202D01*
X169870Y112694D01*
X170565Y113390D01*
X171057Y114242D01*
X171312Y115193D01*
Y116177D01*
X171057Y117128D01*
X170565Y117980D01*
X169870Y118676D01*
X169017Y119168D01*
X168067Y119422D01*
D02*
G37*
G36*
X140508D02*
X139524D01*
X138573Y119168D01*
X137721Y118676D01*
X137025Y117980D01*
X136533Y117128D01*
X136278Y116177D01*
Y115193D01*
X136533Y114242D01*
X137025Y113390D01*
X137721Y112694D01*
X138573Y112202D01*
X139524Y111948D01*
X140508D01*
X141458Y112202D01*
X142311Y112694D01*
X143006Y113390D01*
X143499Y114242D01*
X143753Y115193D01*
Y116177D01*
X143499Y117128D01*
X143006Y117980D01*
X142311Y118676D01*
X141458Y119168D01*
X140508Y119422D01*
D02*
G37*
G36*
X126728D02*
X125744D01*
X124794Y119168D01*
X123941Y118676D01*
X123246Y117980D01*
X122754Y117128D01*
X122499Y116177D01*
Y115193D01*
X122754Y114242D01*
X123246Y113390D01*
X123941Y112694D01*
X124794Y112202D01*
X125744Y111948D01*
X126728D01*
X127679Y112202D01*
X128531Y112694D01*
X129227Y113390D01*
X129719Y114242D01*
X129974Y115193D01*
Y116177D01*
X129719Y117128D01*
X129227Y117980D01*
X128531Y118676D01*
X127679Y119168D01*
X126728Y119422D01*
D02*
G37*
G36*
X112949D02*
X111965D01*
X111014Y119168D01*
X110162Y118676D01*
X109466Y117980D01*
X108974Y117128D01*
X108719Y116177D01*
Y115193D01*
X108974Y114242D01*
X109466Y113390D01*
X110162Y112694D01*
X111014Y112202D01*
X111965Y111948D01*
X112949D01*
X113899Y112202D01*
X114752Y112694D01*
X115447Y113390D01*
X115939Y114242D01*
X116194Y115193D01*
Y116177D01*
X115939Y117128D01*
X115447Y117980D01*
X114752Y118676D01*
X113899Y119168D01*
X112949Y119422D01*
D02*
G37*
G36*
X99169D02*
X98185D01*
X97235Y119168D01*
X96382Y118676D01*
X95687Y117980D01*
X95195Y117128D01*
X94940Y116177D01*
Y115193D01*
X95195Y114242D01*
X95687Y113390D01*
X96382Y112694D01*
X97235Y112202D01*
X98185Y111948D01*
X99169D01*
X100120Y112202D01*
X100972Y112694D01*
X101668Y113390D01*
X102160Y114242D01*
X102415Y115193D01*
Y116177D01*
X102160Y117128D01*
X101668Y117980D01*
X100972Y118676D01*
X100120Y119168D01*
X99169Y119422D01*
D02*
G37*
G36*
X85390D02*
X84406D01*
X83455Y119168D01*
X82603Y118676D01*
X81907Y117980D01*
X81415Y117128D01*
X81160Y116177D01*
Y115193D01*
X81415Y114242D01*
X81907Y113390D01*
X82603Y112694D01*
X83455Y112202D01*
X84406Y111948D01*
X85390D01*
X86340Y112202D01*
X87192Y112694D01*
X87888Y113390D01*
X88380Y114242D01*
X88635Y115193D01*
Y116177D01*
X88380Y117128D01*
X87888Y117980D01*
X87192Y118676D01*
X86340Y119168D01*
X85390Y119422D01*
D02*
G37*
G36*
X71610D02*
X70626D01*
X69675Y119168D01*
X68823Y118676D01*
X68127Y117980D01*
X67635Y117128D01*
X67381Y116177D01*
Y115193D01*
X67635Y114242D01*
X68127Y113390D01*
X68823Y112694D01*
X69675Y112202D01*
X70626Y111948D01*
X71610D01*
X72561Y112202D01*
X73413Y112694D01*
X74109Y113390D01*
X74601Y114242D01*
X74856Y115193D01*
Y116177D01*
X74601Y117128D01*
X74109Y117980D01*
X73413Y118676D01*
X72561Y119168D01*
X71610Y119422D01*
D02*
G37*
G36*
X57831D02*
X56847D01*
X55896Y119168D01*
X55044Y118676D01*
X54348Y117980D01*
X53856Y117128D01*
X53601Y116177D01*
Y115193D01*
X53856Y114242D01*
X54348Y113390D01*
X55044Y112694D01*
X55896Y112202D01*
X56847Y111948D01*
X57831D01*
X58781Y112202D01*
X59633Y112694D01*
X60329Y113390D01*
X60821Y114242D01*
X61076Y115193D01*
Y116177D01*
X60821Y117128D01*
X60329Y117980D01*
X59633Y118676D01*
X58781Y119168D01*
X57831Y119422D01*
D02*
G37*
G36*
X44051D02*
X43067D01*
X42116Y119168D01*
X41264Y118676D01*
X40568Y117980D01*
X40076Y117128D01*
X39822Y116177D01*
Y115193D01*
X40076Y114242D01*
X40568Y113390D01*
X41264Y112694D01*
X42116Y112202D01*
X43067Y111948D01*
X44051D01*
X45002Y112202D01*
X45854Y112694D01*
X46550Y113390D01*
X47042Y114242D01*
X47297Y115193D01*
Y116177D01*
X47042Y117128D01*
X46550Y117980D01*
X45854Y118676D01*
X45002Y119168D01*
X44051Y119422D01*
D02*
G37*
G36*
X154288Y119346D02*
X153304D01*
X152353Y119092D01*
X151501Y118599D01*
X150805Y117904D01*
X150313Y117051D01*
X150059Y116101D01*
Y115117D01*
X150313Y114166D01*
X150805Y113314D01*
X151501Y112618D01*
X152353Y112126D01*
X153304Y111872D01*
X154288D01*
X155239Y112126D01*
X156091Y112618D01*
X156787Y113314D01*
X157279Y114166D01*
X157533Y115117D01*
Y116101D01*
X157279Y117051D01*
X156787Y117904D01*
X156091Y118599D01*
X155239Y119092D01*
X154288Y119346D01*
D02*
G37*
G36*
X33601Y114685D02*
X30779D01*
Y111864D01*
X31304Y112004D01*
X32205Y112524D01*
X32940Y113260D01*
X33460Y114160D01*
X33601Y114685D01*
D02*
G37*
G36*
X28780D02*
X25958D01*
X26099Y114160D01*
X26619Y113260D01*
X27354Y112524D01*
X28255Y112004D01*
X28780Y111864D01*
Y114685D01*
D02*
G37*
G36*
X16556Y119289D02*
X15572D01*
X14622Y119034D01*
X13769Y118542D01*
X13074Y117847D01*
X12582Y116994D01*
X12327Y116044D01*
Y115060D01*
X12582Y114109D01*
X13074Y113257D01*
X13769Y112561D01*
X14622Y112069D01*
X15572Y111814D01*
X16556D01*
X17507Y112069D01*
X18359Y112561D01*
X19055Y113257D01*
X19547Y114109D01*
X19802Y115060D01*
Y116044D01*
X19547Y116994D01*
X19055Y117847D01*
X18359Y118542D01*
X17507Y119034D01*
X16556Y119289D01*
D02*
G37*
G36*
X30779Y99821D02*
Y97000D01*
X33601D01*
X33460Y97525D01*
X32940Y98425D01*
X32205Y99161D01*
X31304Y99681D01*
X30779Y99821D01*
D02*
G37*
G36*
X28780D02*
X28255Y99681D01*
X27354Y99161D01*
X26619Y98425D01*
X26099Y97525D01*
X25958Y97000D01*
X28780D01*
Y99821D01*
D02*
G37*
G36*
X168067Y99737D02*
X167083D01*
X166132Y99483D01*
X165280Y98991D01*
X164584Y98295D01*
X164092Y97443D01*
X163837Y96492D01*
Y95508D01*
X164092Y94557D01*
X164584Y93705D01*
X165280Y93009D01*
X166132Y92517D01*
X167083Y92263D01*
X168067D01*
X169017Y92517D01*
X169870Y93009D01*
X170565Y93705D01*
X171057Y94557D01*
X171312Y95508D01*
Y96492D01*
X171057Y97443D01*
X170565Y98295D01*
X169870Y98991D01*
X169017Y99483D01*
X168067Y99737D01*
D02*
G37*
G36*
X154287D02*
X153303D01*
X152353Y99483D01*
X151500Y98991D01*
X150805Y98295D01*
X150313Y97443D01*
X150058Y96492D01*
Y95508D01*
X150313Y94557D01*
X150805Y93705D01*
X151500Y93009D01*
X152353Y92517D01*
X153303Y92263D01*
X154287D01*
X155238Y92517D01*
X156090Y93009D01*
X156786Y93705D01*
X157278Y94557D01*
X157533Y95508D01*
Y96492D01*
X157278Y97443D01*
X156786Y98295D01*
X156090Y98991D01*
X155238Y99483D01*
X154287Y99737D01*
D02*
G37*
G36*
X140508D02*
X139524D01*
X138573Y99483D01*
X137721Y98991D01*
X137025Y98295D01*
X136533Y97443D01*
X136278Y96492D01*
Y95508D01*
X136533Y94557D01*
X137025Y93705D01*
X137721Y93009D01*
X138573Y92517D01*
X139524Y92263D01*
X140508D01*
X141458Y92517D01*
X142311Y93009D01*
X143006Y93705D01*
X143499Y94557D01*
X143753Y95508D01*
Y96492D01*
X143499Y97443D01*
X143006Y98295D01*
X142311Y98991D01*
X141458Y99483D01*
X140508Y99737D01*
D02*
G37*
G36*
X126728D02*
X125744D01*
X124794Y99483D01*
X123941Y98991D01*
X123246Y98295D01*
X122754Y97443D01*
X122499Y96492D01*
Y95508D01*
X122754Y94557D01*
X123246Y93705D01*
X123941Y93009D01*
X124794Y92517D01*
X125744Y92263D01*
X126728D01*
X127679Y92517D01*
X128531Y93009D01*
X129227Y93705D01*
X129719Y94557D01*
X129974Y95508D01*
Y96492D01*
X129719Y97443D01*
X129227Y98295D01*
X128531Y98991D01*
X127679Y99483D01*
X126728Y99737D01*
D02*
G37*
G36*
X99169D02*
X98185D01*
X97235Y99483D01*
X96382Y98991D01*
X95687Y98295D01*
X95195Y97443D01*
X94940Y96492D01*
Y95508D01*
X95195Y94557D01*
X95687Y93705D01*
X96382Y93009D01*
X97235Y92517D01*
X98185Y92263D01*
X99169D01*
X100120Y92517D01*
X100972Y93009D01*
X101668Y93705D01*
X102160Y94557D01*
X102415Y95508D01*
Y96492D01*
X102160Y97443D01*
X101668Y98295D01*
X100972Y98991D01*
X100120Y99483D01*
X99169Y99737D01*
D02*
G37*
G36*
X57831D02*
X56846D01*
X55896Y99483D01*
X55044Y98991D01*
X54348Y98295D01*
X53856Y97443D01*
X53601Y96492D01*
Y95508D01*
X53856Y94557D01*
X54348Y93705D01*
X55044Y93009D01*
X55896Y92517D01*
X56846Y92263D01*
X57831D01*
X58781Y92517D01*
X59633Y93009D01*
X60329Y93705D01*
X60821Y94557D01*
X61076Y95508D01*
Y96492D01*
X60821Y97443D01*
X60329Y98295D01*
X59633Y98991D01*
X58781Y99483D01*
X57831Y99737D01*
D02*
G37*
G36*
X44051D02*
X43067D01*
X42116Y99483D01*
X41264Y98991D01*
X40568Y98295D01*
X40076Y97443D01*
X39822Y96492D01*
Y95508D01*
X40076Y94557D01*
X40568Y93705D01*
X41264Y93009D01*
X42116Y92517D01*
X43067Y92263D01*
X44051D01*
X45002Y92517D01*
X45854Y93009D01*
X46550Y93705D01*
X47042Y94557D01*
X47297Y95508D01*
Y96492D01*
X47042Y97443D01*
X46550Y98295D01*
X45854Y98991D01*
X45002Y99483D01*
X44051Y99737D01*
D02*
G37*
G36*
X16492D02*
X15508D01*
X14557Y99483D01*
X13705Y98991D01*
X13009Y98295D01*
X12517Y97443D01*
X12263Y96492D01*
Y95508D01*
X12517Y94557D01*
X13009Y93705D01*
X13705Y93009D01*
X14557Y92517D01*
X15508Y92263D01*
X16492D01*
X17443Y92517D01*
X18295Y93009D01*
X18991Y93705D01*
X19483Y94557D01*
X19737Y95508D01*
Y96492D01*
X19483Y97443D01*
X18991Y98295D01*
X18295Y98991D01*
X17443Y99483D01*
X16492Y99737D01*
D02*
G37*
G36*
X33601Y95000D02*
X30779D01*
Y92179D01*
X31304Y92319D01*
X32205Y92839D01*
X32940Y93575D01*
X33460Y94475D01*
X33601Y95000D01*
D02*
G37*
G36*
X28780D02*
X25958D01*
X26099Y94475D01*
X26619Y93575D01*
X27354Y92839D01*
X28255Y92319D01*
X28780Y92179D01*
Y95000D01*
D02*
G37*
G36*
X112935Y99561D02*
X111951D01*
X111000Y99306D01*
X110148Y98814D01*
X109452Y98118D01*
X108960Y97266D01*
X108706Y96315D01*
Y95331D01*
X108960Y94381D01*
X109452Y93528D01*
X110148Y92833D01*
X111000Y92341D01*
X111951Y92086D01*
X112935D01*
X113886Y92341D01*
X114738Y92833D01*
X115434Y93528D01*
X115926Y94381D01*
X116180Y95331D01*
Y96315D01*
X115926Y97266D01*
X115434Y98118D01*
X114738Y98814D01*
X113886Y99306D01*
X112935Y99561D01*
D02*
G37*
G36*
X85390Y99737D02*
X84406D01*
X83455Y99483D01*
X82603Y98991D01*
X81907Y98295D01*
X81415Y97443D01*
X81160Y96492D01*
Y95508D01*
X81415Y94557D01*
X81907Y93705D01*
X82603Y93009D01*
X83126Y92707D01*
Y86299D01*
X82244D01*
Y80394D01*
X87756D01*
Y86299D01*
X86771D01*
Y92766D01*
X87192Y93009D01*
X87888Y93705D01*
X88380Y94557D01*
X88635Y95508D01*
Y96492D01*
X88380Y97443D01*
X87888Y98295D01*
X87192Y98991D01*
X86340Y99483D01*
X85390Y99737D01*
D02*
G37*
G36*
X71610D02*
X70626D01*
X69675Y99483D01*
X68823Y98991D01*
X68128Y98295D01*
X67635Y97443D01*
X67381Y96492D01*
Y95508D01*
X67635Y94557D01*
X68128Y93705D01*
X68823Y93009D01*
X69237Y92771D01*
Y86299D01*
X68244D01*
Y80394D01*
X73756D01*
Y86299D01*
X72882D01*
Y92703D01*
X73413Y93009D01*
X74109Y93705D01*
X74601Y94557D01*
X74856Y95508D01*
Y96492D01*
X74601Y97443D01*
X74109Y98295D01*
X73413Y98991D01*
X72561Y99483D01*
X71610Y99737D01*
D02*
G37*
G36*
X105480Y78583D02*
X102626D01*
Y77500D01*
X105480D01*
Y78583D01*
D02*
G37*
G36*
X58228D02*
X55374D01*
Y77500D01*
X58228D01*
Y78583D01*
D02*
G37*
G36*
X53374D02*
X50520D01*
Y77500D01*
X53374D01*
Y78583D01*
D02*
G37*
G36*
X100626D02*
X97772D01*
Y77500D01*
X100626D01*
Y78583D01*
D02*
G37*
G36*
X73756Y79606D02*
X68244D01*
Y77313D01*
X67268D01*
Y78370D01*
X59984D01*
Y74630D01*
X63034D01*
Y72256D01*
X60894D01*
Y66744D01*
X63034D01*
Y65756D01*
X60894D01*
Y60244D01*
X62868D01*
Y59569D01*
X62454Y59154D01*
X62144Y58405D01*
Y57595D01*
X62454Y56846D01*
X63027Y56273D01*
X63776Y55963D01*
X64586D01*
X65335Y56273D01*
X65908Y56846D01*
X66219Y57595D01*
Y58405D01*
X65908Y59154D01*
X65494Y59569D01*
Y60244D01*
X66799D01*
Y65756D01*
X65659D01*
Y66744D01*
X66799D01*
Y72256D01*
X65659D01*
Y74630D01*
X67268D01*
Y74687D01*
X68244D01*
Y73701D01*
X73756D01*
Y79606D01*
D02*
G37*
G36*
X105480Y75500D02*
X102626D01*
Y74417D01*
X105480D01*
Y75500D01*
D02*
G37*
G36*
X100626D02*
X97772D01*
Y74417D01*
X100626D01*
Y75500D01*
D02*
G37*
G36*
X58228D02*
X55374D01*
Y74417D01*
X58228D01*
Y75500D01*
D02*
G37*
G36*
X53374D02*
X50520D01*
Y74417D01*
X53374D01*
Y75500D01*
D02*
G37*
G36*
X102512Y72469D02*
X100347D01*
Y70500D01*
X102512D01*
Y72469D01*
D02*
G37*
G36*
X60319D02*
X58153D01*
Y70500D01*
X60319D01*
Y72469D01*
D02*
G37*
G36*
X56154D02*
X53988D01*
Y70500D01*
X56154D01*
Y72469D01*
D02*
G37*
G36*
X98347D02*
X96181D01*
Y70500D01*
X98347D01*
Y72469D01*
D02*
G37*
G36*
X102512Y68500D02*
X100347D01*
Y66531D01*
X102512D01*
Y68500D01*
D02*
G37*
G36*
X98347D02*
X96181D01*
Y66531D01*
X98347D01*
Y68500D01*
D02*
G37*
G36*
X60319D02*
X58153D01*
Y66531D01*
X60319D01*
Y68500D01*
D02*
G37*
G36*
X56154D02*
X53988D01*
Y66531D01*
X56154D01*
Y68500D01*
D02*
G37*
G36*
X102512Y65969D02*
X100347D01*
Y64000D01*
X102512D01*
Y65969D01*
D02*
G37*
G36*
X60319D02*
X58153D01*
Y64000D01*
X60319D01*
Y65969D01*
D02*
G37*
G36*
X56154D02*
X53988D01*
Y64000D01*
X56154D01*
Y65969D01*
D02*
G37*
G36*
X98347D02*
X96181D01*
Y64000D01*
X98347D01*
Y65969D01*
D02*
G37*
G36*
X102512Y62000D02*
X100347D01*
Y60031D01*
X102512D01*
Y62000D01*
D02*
G37*
G36*
X98347D02*
X96181D01*
Y60031D01*
X98347D01*
Y62000D01*
D02*
G37*
G36*
X60319D02*
X58153D01*
Y60031D01*
X60319D01*
Y62000D01*
D02*
G37*
G36*
X56154D02*
X53988D01*
Y60031D01*
X56154D01*
Y62000D01*
D02*
G37*
G36*
X12405Y73037D02*
X11595D01*
X10846Y72727D01*
X10273Y72154D01*
X9963Y71405D01*
Y70595D01*
X10273Y69846D01*
X10687Y69431D01*
Y50069D01*
X10273Y49654D01*
X9963Y48905D01*
Y48095D01*
X10273Y47346D01*
X10846Y46773D01*
X11595Y46463D01*
X12405D01*
X13154Y46773D01*
X13727Y47346D01*
X14037Y48095D01*
Y48905D01*
X13727Y49654D01*
X13313Y50069D01*
Y69431D01*
X13727Y69846D01*
X14037Y70595D01*
Y71405D01*
X13727Y72154D01*
X13154Y72727D01*
X12405Y73037D01*
D02*
G37*
G36*
X87756Y79606D02*
X82244D01*
Y73701D01*
X87756D01*
Y74687D01*
X88732D01*
Y74630D01*
X91061D01*
Y72256D01*
X89701D01*
Y66744D01*
X91341D01*
Y65756D01*
X89701D01*
Y60244D01*
X91187D01*
Y36069D01*
X90773Y35654D01*
X90463Y34905D01*
Y34095D01*
X90773Y33346D01*
X91346Y32773D01*
X92095Y32463D01*
X92905D01*
X93654Y32773D01*
X94227Y33346D01*
X94537Y34095D01*
Y34905D01*
X94227Y35654D01*
X93813Y36069D01*
Y60244D01*
X95606D01*
Y65756D01*
X93966D01*
Y66744D01*
X95606D01*
Y72256D01*
X93687D01*
Y74630D01*
X96016D01*
Y78370D01*
X88732D01*
Y77313D01*
X87756D01*
Y79606D01*
D02*
G37*
G36*
X16000Y26824D02*
Y24000D01*
X18824D01*
X18683Y24526D01*
X18163Y25427D01*
X17427Y26163D01*
X16526Y26683D01*
X16000Y26824D01*
D02*
G37*
G36*
X14000D02*
X13474Y26683D01*
X12573Y26163D01*
X11837Y25427D01*
X11317Y24526D01*
X11176Y24000D01*
X14000D01*
Y26824D01*
D02*
G37*
G36*
X122642Y153175D02*
X121783Y153062D01*
X120984Y152731D01*
X120297Y152204D01*
X119770Y151517D01*
X119439Y150717D01*
X119326Y149859D01*
X119439Y149001D01*
X119770Y148201D01*
X120297Y147514D01*
X121146Y146666D01*
X121155Y146653D01*
X124684Y143124D01*
Y134373D01*
X119627Y129316D01*
X12000D01*
X11142Y129203D01*
X10673Y129009D01*
X10342Y128872D01*
X9655Y128345D01*
X3655Y122345D01*
X3128Y121658D01*
X2991Y121327D01*
X2797Y120858D01*
X2684Y120000D01*
Y86500D01*
X2797Y85642D01*
X3128Y84842D01*
X3655Y84155D01*
X14532Y73279D01*
X15219Y72752D01*
X16018Y72421D01*
X16877Y72308D01*
X41173D01*
X41684Y71796D01*
Y24737D01*
X41515Y24444D01*
X41260Y23492D01*
Y22508D01*
X41515Y21556D01*
X42007Y20704D01*
X42704Y20007D01*
X43556Y19515D01*
X44508Y19260D01*
X45492D01*
X46444Y19515D01*
X47297Y20007D01*
X47993Y20704D01*
X48485Y21556D01*
X48740Y22508D01*
Y23492D01*
X48485Y24444D01*
X48316Y24737D01*
Y73170D01*
X48203Y74028D01*
X47872Y74828D01*
X47345Y75514D01*
X44891Y77968D01*
X44204Y78495D01*
X43404Y78826D01*
X42546Y78939D01*
X18250D01*
X9316Y87873D01*
Y118627D01*
X13373Y122684D01*
X121000D01*
X121858Y122797D01*
X122327Y122991D01*
X122658Y123128D01*
X123345Y123655D01*
X130345Y130655D01*
X130871Y131342D01*
X131203Y132142D01*
X131316Y133000D01*
Y144498D01*
X131203Y145356D01*
X130871Y146156D01*
X130345Y146842D01*
X125854Y151333D01*
X125845Y151345D01*
X124986Y152204D01*
X124300Y152731D01*
X123500Y153062D01*
X122642Y153175D01*
D02*
G37*
G36*
X30405Y50537D02*
X29595D01*
X28846Y50227D01*
X28273Y49654D01*
X27963Y48905D01*
Y48095D01*
X28273Y47346D01*
X28846Y46773D01*
X29595Y46463D01*
X29821D01*
X33432Y42851D01*
Y26414D01*
X32704Y25993D01*
X32007Y25297D01*
X31515Y24444D01*
X31260Y23492D01*
Y22508D01*
X31515Y21556D01*
X32007Y20704D01*
X32704Y20007D01*
X33556Y19515D01*
X34508Y19260D01*
X35492D01*
X36444Y19515D01*
X37297Y20007D01*
X37993Y20704D01*
X38485Y21556D01*
X38740Y22508D01*
Y23492D01*
X38485Y24444D01*
X37993Y25297D01*
X37297Y25993D01*
X36568Y26414D01*
Y43500D01*
X36448Y44100D01*
X36108Y44608D01*
X32037Y48679D01*
Y48905D01*
X31727Y49654D01*
X31154Y50227D01*
X30405Y50537D01*
D02*
G37*
G36*
X25492Y26740D02*
X24508D01*
X23556Y26485D01*
X22704Y25993D01*
X22007Y25297D01*
X21515Y24444D01*
X21260Y23492D01*
Y22508D01*
X21515Y21556D01*
X22007Y20704D01*
X22704Y20007D01*
X23556Y19515D01*
X24508Y19260D01*
X25492D01*
X26444Y19515D01*
X27297Y20007D01*
X27993Y20704D01*
X28485Y21556D01*
X28740Y22508D01*
Y23492D01*
X28485Y24444D01*
X27993Y25297D01*
X27297Y25993D01*
X26444Y26485D01*
X25492Y26740D01*
D02*
G37*
G36*
X18824Y22000D02*
X16000D01*
Y19176D01*
X16526Y19317D01*
X17427Y19837D01*
X18163Y20573D01*
X18683Y21474D01*
X18824Y22000D01*
D02*
G37*
G36*
X14000D02*
X11176D01*
X11317Y21474D01*
X11837Y20573D01*
X12573Y19837D01*
X13474Y19317D01*
X14000Y19176D01*
Y22000D01*
D02*
G37*
G36*
X45492Y16740D02*
X44508D01*
X43556Y16485D01*
X42704Y15993D01*
X42007Y15296D01*
X41515Y14444D01*
X41260Y13492D01*
Y12508D01*
X41515Y11556D01*
X42007Y10704D01*
X42704Y10007D01*
X43556Y9515D01*
X44508Y9260D01*
X45492D01*
X46444Y9515D01*
X47297Y10007D01*
X47993Y10704D01*
X48485Y11556D01*
X48740Y12508D01*
Y13492D01*
X48485Y14444D01*
X47993Y15296D01*
X47297Y15993D01*
X46444Y16485D01*
X45492Y16740D01*
D02*
G37*
G36*
X35492D02*
X34508D01*
X33556Y16485D01*
X32704Y15993D01*
X32007Y15296D01*
X31515Y14444D01*
X31260Y13492D01*
Y12508D01*
X31515Y11556D01*
X32007Y10704D01*
X32704Y10007D01*
X33556Y9515D01*
X34508Y9260D01*
X35492D01*
X36444Y9515D01*
X37297Y10007D01*
X37993Y10704D01*
X38485Y11556D01*
X38740Y12508D01*
Y13492D01*
X38485Y14444D01*
X37993Y15296D01*
X37297Y15993D01*
X36444Y16485D01*
X35492Y16740D01*
D02*
G37*
G36*
X25492D02*
X24508D01*
X23556Y16485D01*
X22704Y15993D01*
X22007Y15296D01*
X21515Y14444D01*
X21260Y13492D01*
Y12508D01*
X21515Y11556D01*
X22007Y10704D01*
X22704Y10007D01*
X23556Y9515D01*
X24508Y9260D01*
X25492D01*
X26444Y9515D01*
X27297Y10007D01*
X27993Y10704D01*
X28485Y11556D01*
X28740Y12508D01*
Y13492D01*
X28485Y14444D01*
X27993Y15296D01*
X27297Y15993D01*
X26444Y16485D01*
X25492Y16740D01*
D02*
G37*
G36*
X18740D02*
X11260D01*
Y9260D01*
X18740D01*
Y16740D01*
D02*
G37*
G36*
X9905Y42537D02*
X9095D01*
X8346Y42227D01*
X7773Y41654D01*
X7558Y41135D01*
X5711Y39289D01*
X5316Y38697D01*
X5178Y38000D01*
X5178Y38000D01*
Y7500D01*
X5178Y7500D01*
X5316Y6803D01*
X5711Y6211D01*
X8211Y3711D01*
X8211Y3711D01*
X8566Y3475D01*
X8803Y3316D01*
X9500Y3178D01*
X62500D01*
X62500Y3178D01*
X63197Y3316D01*
X63789Y3711D01*
X66789Y6711D01*
X67184Y7303D01*
X67322Y8000D01*
X67322Y8000D01*
Y8076D01*
X67537Y8595D01*
Y9405D01*
X67227Y10154D01*
X66654Y10727D01*
X65905Y11037D01*
X65095D01*
X64346Y10727D01*
X63773Y10154D01*
X63463Y9405D01*
Y8595D01*
X63479Y8556D01*
X61745Y6822D01*
X10255D01*
X8822Y8255D01*
Y37245D01*
X10135Y38558D01*
X10654Y38773D01*
X11227Y39346D01*
X11537Y40095D01*
Y40905D01*
X11227Y41654D01*
X10654Y42227D01*
X9905Y42537D01*
D02*
G37*
%LPD*%
D11*
X92500Y34500D02*
Y62846D01*
X12000Y48500D02*
Y70000D01*
X64181Y58000D02*
Y61847D01*
X64028Y62000D02*
X64181Y61847D01*
X92500Y62846D02*
X92654Y63000D01*
Y69000D01*
X92374Y69279D02*
Y76000D01*
Y69279D02*
X92654Y69000D01*
X85654Y76000D02*
X92374D01*
X85000Y76653D02*
X85654Y76000D01*
X63764D02*
X70346D01*
X64346Y63000D02*
Y75417D01*
X63626Y76500D02*
X63764D01*
Y76000D02*
X64346Y75417D01*
X70346Y76000D02*
X71000Y76653D01*
D19*
X92654Y63000D02*
D03*
X99347D02*
D03*
Y69500D02*
D03*
X92654D02*
D03*
X57153D02*
D03*
X63846D02*
D03*
Y63000D02*
D03*
X57153D02*
D03*
D22*
X85000Y83346D02*
D03*
Y76653D02*
D03*
X71000Y83346D02*
D03*
Y76653D02*
D03*
D46*
X16000Y96000D02*
D03*
X29779Y115685D02*
D03*
X57339D02*
D03*
X71118Y96000D02*
D03*
X84898Y115685D02*
D03*
X98677Y96000D02*
D03*
X112457Y115685D02*
D03*
X126236Y96000D02*
D03*
X140016Y115685D02*
D03*
X153795Y96000D02*
D03*
X167575Y115685D02*
D03*
X43559Y96000D02*
D03*
X16064Y115552D02*
D03*
X29779Y96000D02*
D03*
X43559Y115685D02*
D03*
X57339Y96000D02*
D03*
X71118Y115685D02*
D03*
X84898Y96000D02*
D03*
X98677Y115685D02*
D03*
X112443Y95823D02*
D03*
X126236Y115685D02*
D03*
X140016Y96000D02*
D03*
X153796Y115609D02*
D03*
X167575Y96000D02*
D03*
D48*
X7000Y7500D02*
Y38000D01*
X9500Y40500D01*
X65500Y8000D02*
Y9000D01*
X62500Y5000D02*
X65500Y8000D01*
X9500Y5000D02*
X62500D01*
X7000Y7500D02*
X9500Y5000D01*
X84949Y83398D02*
Y95949D01*
X84898Y96000D02*
X84949Y95949D01*
Y83398D02*
X85000Y83346D01*
X71000D02*
X71059Y83406D01*
Y95941D02*
X71118Y96000D01*
X71059Y83406D02*
Y95941D01*
D50*
X45000Y23245D02*
Y73170D01*
X42546Y75623D02*
X45000Y73170D01*
X6000Y86500D02*
X16877Y75623D01*
X42546D01*
X123500Y148998D02*
X128000Y144498D01*
X123500Y148998D02*
Y149001D01*
X122642Y149859D02*
X123500Y149001D01*
X6000Y86500D02*
Y120000D01*
X12000Y126000D01*
X121000D01*
X128000Y133000D01*
Y144498D01*
D53*
X30000Y48500D02*
X35000Y43500D01*
Y23000D02*
Y43500D01*
D54*
X15000Y13000D02*
D03*
D55*
Y23000D02*
D03*
X25000Y13000D02*
D03*
Y23000D02*
D03*
X35000Y13000D02*
D03*
Y23000D02*
D03*
X45000Y13000D02*
D03*
Y23000D02*
D03*
D56*
X92500Y34500D02*
D03*
X9500Y40500D02*
D03*
X30000Y48500D02*
D03*
X65500Y9000D02*
D03*
X58500Y9500D02*
D03*
X122642Y149859D02*
D03*
X12000Y71000D02*
D03*
Y48500D02*
D03*
X127500Y171000D02*
D03*
X122500D02*
D03*
X62000Y171500D02*
D03*
X55000D02*
D03*
X76000Y139000D02*
D03*
X43358Y74812D02*
D03*
X126000Y146500D02*
D03*
X64181Y58000D02*
D03*
D57*
X101626Y76500D02*
D03*
X92374D02*
D03*
X54374D02*
D03*
X63626D02*
D03*
M02*
